<svg xmlns="http://www.w3.org/2000/svg" width="1800" height="1200" viewBox="0 0 1800 1200">
  <defs>
    <marker id="arrow" markerWidth="12" markerHeight="8" refX="9" refY="4" orient="auto" markerUnits="strokeWidth">
      <path d="M0,0 L10,4 L0,8 Z" fill="#7b8798"/>
    </marker>
  </defs>
  <style>text { font-family: Aptos, "Helvetica Neue", Helvetica, Arial, "PingFang SC", "Noto Sans SC", "Microsoft YaHei", sans-serif; }</style>

    <rect width="1800" height="1200" fill="#ffffff"/>
    <rect x="0" y="0" width="1800" height="150" fill="#f7f9fc"/>
    <text x="82" y="76" font-size="42" font-weight="800" fill="#172033">System Roadmap &amp; Trend Matrix</text>
    <text x="82" y="116" font-size="22" fill="#5f6b7a">A system-level reading of the 707-paper corpus: stack interfaces, representative methods, six direction trends, and subdirection pressure points.</text>
    <text x="1718" y="82" font-size="24" font-weight="700" fill="#172033" text-anchor="end">707 papers  |  6 directions  |  29 subdirections</text>
  <text class="tiny" x="80" y="152" font-size="13" font-weight="850" fill="#5f6b7a">System chain</text><rect x="72" y="174" width="214" height="92" rx="10" fill="#ffffff" stroke="#4E79A7" stroke-width="1.7"/>
      <rect x="72" y="174" width="214" height="7" rx="3.5" fill="#4E79A7"/>
      <text class="" x="88" y="215" font-size="19" font-weight="850" fill="#172033" text-anchor="start"><tspan x="88" dy="0">Perception</tspan></text>
      <text class="" x="88" y="242" font-size="12.5" font-weight="400" fill="#5f6b7a" text-anchor="start"><tspan x="88" dy="0">observation state / 3D</tspan><tspan x="88" dy="15">grounding / map memory</tspan></text><path d="M291 220 H299" stroke="#7b8798" stroke-width="2" marker-end="url(#arrow)"/><rect x="304" y="174" width="214" height="92" rx="10" fill="#ffffff" stroke="#B07AA1" stroke-width="1.7"/>
      <rect x="304" y="174" width="214" height="7" rx="3.5" fill="#B07AA1"/>
      <text class="" x="320" y="215" font-size="19" font-weight="850" fill="#172033" text-anchor="start"><tspan x="320" dy="0">Language</tspan></text>
      <text class="" x="320" y="242" font-size="12.5" font-weight="400" fill="#5f6b7a" text-anchor="start"><tspan x="320" dy="0">instruction decomposition</tspan><tspan x="320" dy="15">/ state language / failure</tspan><tspan x="320" dy="15">explanation</tspan></text><path d="M523 220 H531" stroke="#7b8798" stroke-width="2" marker-end="url(#arrow)"/><rect x="536" y="174" width="214" height="92" rx="10" fill="#ffffff" stroke="#59A14F" stroke-width="1.7"/>
      <rect x="536" y="174" width="214" height="7" rx="3.5" fill="#59A14F"/>
      <text class="" x="552" y="215" font-size="19" font-weight="850" fill="#172033" text-anchor="start"><tspan x="552" dy="0">World Model</tspan></text>
      <text class="" x="552" y="242" font-size="12.5" font-weight="400" fill="#5f6b7a" text-anchor="start"><tspan x="552" dy="0">future state / imagined</tspan><tspan x="552" dy="15">rollout / verification</tspan><tspan x="552" dy="15">score</tspan></text><path d="M755 220 H763" stroke="#7b8798" stroke-width="2" marker-end="url(#arrow)"/><rect x="768" y="174" width="214" height="92" rx="10" fill="#ffffff" stroke="#B07AA1" stroke-width="1.7"/>
      <rect x="768" y="174" width="214" height="7" rx="3.5" fill="#B07AA1"/>
      <text class="" x="784" y="215" font-size="19" font-weight="850" fill="#172033" text-anchor="start"><tspan x="784" dy="0">Planner</tspan></text>
      <text class="" x="784" y="242" font-size="12.5" font-weight="400" fill="#5f6b7a" text-anchor="start"><tspan x="784" dy="0">constraint / affordance /</tspan><tspan x="784" dy="15">cost / recovery</tspan></text><path d="M987 220 H995" stroke="#7b8798" stroke-width="2" marker-end="url(#arrow)"/><rect x="1000" y="174" width="214" height="92" rx="10" fill="#ffffff" stroke="#E15759" stroke-width="1.7"/>
      <rect x="1000" y="174" width="214" height="7" rx="3.5" fill="#E15759"/>
      <text class="" x="1016" y="215" font-size="19" font-weight="850" fill="#172033" text-anchor="start"><tspan x="1016" dy="0">Policy</tspan></text>
      <text class="" x="1016" y="242" font-size="12.5" font-weight="400" fill="#5f6b7a" text-anchor="start"><tspan x="1016" dy="0">action tokens / trajectory</tspan><tspan x="1016" dy="15">/ online tuning</tspan></text><path d="M1219 220 H1227" stroke="#7b8798" stroke-width="2" marker-end="url(#arrow)"/><rect x="1232" y="174" width="214" height="92" rx="10" fill="#ffffff" stroke="#F28E2B" stroke-width="1.7"/>
      <rect x="1232" y="174" width="214" height="7" rx="3.5" fill="#F28E2B"/>
      <text class="" x="1248" y="215" font-size="19" font-weight="850" fill="#172033" text-anchor="start"><tspan x="1248" dy="0">Embodiment</tspan></text>
      <text class="" x="1248" y="242" font-size="12.5" font-weight="400" fill="#5f6b7a" text-anchor="start"><tspan x="1248" dy="0">body form / contact /</tspan><tspan x="1248" dy="15">coordination / dexterity</tspan></text><path d="M1451 220 H1459" stroke="#7b8798" stroke-width="2" marker-end="url(#arrow)"/><rect x="1464" y="174" width="214" height="92" rx="10" fill="#ffffff" stroke="#76B7B2" stroke-width="1.7"/>
      <rect x="1464" y="174" width="214" height="7" rx="3.5" fill="#76B7B2"/>
      <text class="" x="1480" y="215" font-size="19" font-weight="850" fill="#172033" text-anchor="start"><tspan x="1480" dy="0">Deployment</tspan></text>
      <text class="" x="1480" y="242" font-size="12.5" font-weight="400" fill="#5f6b7a" text-anchor="start"><tspan x="1480" dy="0">latency / data credibility</tspan><tspan x="1480" dy="15">/ sim2real / safety</tspan></text><text class="tiny" x="80" y="292" font-size="13" font-weight="850" fill="#5f6b7a">Method anchors</text><rect x="72" y="314" width="214" height="136" rx="8" fill="#4E79A712" stroke="#4E79A755" stroke-width="1.2"/>
    <rect x="86" y="336" width="166.07" height="24" rx="8" fill="#4E79A718" stroke="#4E79A770" stroke-width="1"/>
    <text class="" x="169.035" y="352.025" font-size="11.5" font-weight="600" fill="#172033" text-anchor="middle"><tspan x="169.035" dy="0">F3RM / feature fields</tspan></text>

    <rect x="86" y="372" width="172.74" height="24" rx="8" fill="#4E79A718" stroke="#4E79A770" stroke-width="1"/>
    <text class="" x="172.37" y="388.025" font-size="11.5" font-weight="600" fill="#172033" text-anchor="middle"><tspan x="172.37" dy="0">DovSG / 3D scene graph</tspan></text>

    <rect x="86" y="408" width="186" height="24" rx="8" fill="#4E79A718" stroke="#4E79A770" stroke-width="1"/>
    <text class="" x="179" y="424.025" font-size="11.5" font-weight="600" fill="#172033" text-anchor="middle"><tspan x="179" dy="0">CLIP-Fields / semantic fields</tspan></text>
  <rect x="304" y="314" width="214" height="136" rx="8" fill="#B07AA112" stroke="#B07AA155" stroke-width="1.2"/>
    <rect x="318" y="336" width="186" height="24" rx="8" fill="#B07AA118" stroke="#B07AA170" stroke-width="1"/>
    <text class="" x="411" y="352.025" font-size="11.5" font-weight="600" fill="#172033" text-anchor="middle"><tspan x="411" dy="0">SayCan / task constraints</tspan></text>

    <rect x="318" y="372" width="186" height="24" rx="8" fill="#B07AA118" stroke="#B07AA170" stroke-width="1"/>
    <text class="" x="411" y="388.025" font-size="11.5" font-weight="600" fill="#172033" text-anchor="middle"><tspan x="411" dy="0">Inner Monologue / feedback</tspan></text>

    <rect x="318" y="408" width="132.72" height="24" rx="8" fill="#B07AA118" stroke="#B07AA170" stroke-width="1"/>
    <text class="" x="384.36" y="424.025" font-size="11.5" font-weight="600" fill="#172033" text-anchor="middle"><tspan x="384.36" dy="0">Voyager / memory</tspan></text>
  <rect x="536" y="314" width="214" height="136" rx="8" fill="#59A14F12" stroke="#59A14F55" stroke-width="1.2"/>
    <rect x="550" y="336" width="166.07" height="24" rx="8" fill="#59A14F18" stroke="#59A14F70" stroke-width="1"/>
    <text class="" x="633.035" y="352.025" font-size="11.5" font-weight="600" fill="#172033" text-anchor="middle"><tspan x="633.035" dy="0">DayDreamer / robot WM</tspan></text>

    <rect x="550" y="372" width="186" height="24" rx="8" fill="#59A14F18" stroke="#59A14F70" stroke-width="1"/>
    <text class="" x="643" y="388.025" font-size="11.5" font-weight="600" fill="#172033" text-anchor="middle"><tspan x="643" dy="0">Dreamitate / video generation</tspan></text>

    <rect x="550" y="408" width="186" height="24" rx="8" fill="#59A14F18" stroke="#59A14F70" stroke-width="1"/>
    <text class="" x="643" y="424.025" font-size="11.5" font-weight="600" fill="#172033" text-anchor="middle"><tspan x="643" dy="0">Genie / latent interaction</tspan></text>
  <rect x="768" y="314" width="214" height="136" rx="8" fill="#B07AA112" stroke="#B07AA155" stroke-width="1.2"/>
    <rect x="782" y="336" width="152.73" height="24" rx="8" fill="#B07AA118" stroke="#B07AA170" stroke-width="1"/>
    <text class="" x="858.365" y="352.025" font-size="11.5" font-weight="600" fill="#172033" text-anchor="middle"><tspan x="858.365" dy="0">SayPlan / hierarchy</tspan></text>

    <rect x="782" y="372" width="166.07" height="24" rx="8" fill="#B07AA118" stroke="#B07AA170" stroke-width="1"/>
    <text class="" x="865.035" y="388.025" font-size="11.5" font-weight="600" fill="#172033" text-anchor="middle"><tspan x="865.035" dy="0">VoxPoser / value maps</tspan></text>

    <rect x="782" y="408" width="186" height="24" rx="8" fill="#B07AA118" stroke="#B07AA170" stroke-width="1"/>
    <text class="" x="875" y="424.025" font-size="11.5" font-weight="600" fill="#172033" text-anchor="middle"><tspan x="875" dy="0">Code-as-Policies / programs</tspan></text>
  <rect x="1000" y="314" width="214" height="136" rx="8" fill="#E1575912" stroke="#E1575955" stroke-width="1.2"/>
    <rect x="1014" y="336" width="166.07" height="24" rx="8" fill="#E1575918" stroke="#E1575970" stroke-width="1"/>
    <text class="" x="1097.035" y="352.025" font-size="11.5" font-weight="600" fill="#172033" text-anchor="middle"><tspan x="1097.035" dy="0">RT-2 / generalist VLA</tspan></text>

    <rect x="1014" y="372" width="166.07" height="24" rx="8" fill="#E1575918" stroke="#E1575970" stroke-width="1"/>
    <text class="" x="1097.035" y="388.025" font-size="11.5" font-weight="600" fill="#172033" text-anchor="middle"><tspan x="1097.035" dy="0">OpenVLA / open policy</tspan></text>

    <rect x="1014" y="408" width="159.4" height="24" rx="8" fill="#E1575918" stroke="#E1575970" stroke-width="1"/>
    <text class="" x="1093.7" y="424.025" font-size="11.5" font-weight="600" fill="#172033" text-anchor="middle"><tspan x="1093.7" dy="0">FLOWER / flow policy</tspan></text>
  <rect x="1232" y="314" width="214" height="136" rx="8" fill="#F28E2B12" stroke="#F28E2B55" stroke-width="1.2"/>
    <rect x="1246" y="336" width="132.72" height="24" rx="8" fill="#F28E2B18" stroke="#F28E2B70" stroke-width="1"/>
    <text class="" x="1312.36" y="352.025" font-size="11.5" font-weight="600" fill="#172033" text-anchor="middle"><tspan x="1312.36" dy="0">ALOHA / bimanual</tspan></text>

    <rect x="1246" y="372" width="186" height="24" rx="8" fill="#F28E2B18" stroke="#F28E2B70" stroke-width="1"/>
    <text class="" x="1339" y="388.025" font-size="11.5" font-weight="600" fill="#172033" text-anchor="middle"><tspan x="1339" dy="0">Diffusion Policy / contact</tspan></text>

    <rect x="1246" y="408" width="132.72" height="24" rx="8" fill="#F28E2B18" stroke="#F28E2B70" stroke-width="1"/>
    <text class="" x="1312.36" y="424.025" font-size="11.5" font-weight="600" fill="#172033" text-anchor="middle"><tspan x="1312.36" dy="0">HOVER / humanoid</tspan></text>
  <rect x="1464" y="314" width="214" height="136" rx="8" fill="#76B7B212" stroke="#76B7B255" stroke-width="1.2"/>
    <rect x="1478" y="336" width="186" height="24" rx="8" fill="#76B7B218" stroke="#76B7B270" stroke-width="1"/>
    <text class="" x="1571" y="352.025" font-size="11.5" font-weight="600" fill="#172033" text-anchor="middle"><tspan x="1571" dy="0">TinyVLA / efficient policy</tspan></text>

    <rect x="1478" y="372" width="179.41" height="24" rx="8" fill="#76B7B218" stroke="#76B7B270" stroke-width="1"/>
    <text class="" x="1567.705" y="388.025" font-size="11.5" font-weight="600" fill="#172033" text-anchor="middle"><tspan x="1567.705" dy="0">LeRobot / data pipeline</tspan></text>

    <rect x="1478" y="408" width="179.41" height="24" rx="8" fill="#76B7B218" stroke="#76B7B270" stroke-width="1"/>
    <text class="" x="1567.705" y="424.025" font-size="11.5" font-weight="600" fill="#172033" text-anchor="middle"><tspan x="1567.705" dy="0">RoboVQA / runtime check</tspan></text>
  <text class="tiny" x="80" y="480" font-size="13" font-weight="850" fill="#5f6b7a">Trend notes</text><rect x="80" y="504" width="520" height="272" rx="10" fill="#ffffff" stroke="#d9e1ea" stroke-width="1.3"/>
      <rect x="80" y="504" width="8" height="272" rx="4" fill="#4E79A7"/>
      <text x="106" y="538" font-size="20" font-weight="850" fill="#172033">VLN / Navigation</text>
      <text x="570" y="538" font-size="14" font-weight="850" fill="#4E79A7" text-anchor="end">92 papers</text>
      <text class="tiny" x="106" y="569" font-size="12" font-weight="850" fill="#5f6b7a">Main trend</text>
      <text class="" x="106" y="595" font-size="12.8" font-weight="400" fill="#172033" text-anchor="start"><tspan x="106" dy="0">Navigation is moving from discrete graph routes to continuous</tspan><tspan x="106" dy="14.847999999999999">observation, map memory, executable motion, and open-world</tspan><tspan x="106" dy="14.847999999999999">settings.</tspan></text>
      <text class="tiny" x="106" y="655" font-size="12" font-weight="850" fill="#5f6b7a">Subdirection pressure</text>
    <rect x="106" y="670" width="136.432" height="24" rx="8" fill="#4E79A718" stroke="#4E79A770" stroke-width="1"/>
    <text class="" x="174.216" y="685.92" font-size="11.2" font-weight="600" fill="#172033" text-anchor="middle"><tspan x="174.216" dy="0">Continuous VLN 39</tspan></text>

    <rect x="340" y="670" width="110.448" height="24" rx="8" fill="#4E79A718" stroke="#4E79A770" stroke-width="1"/>
    <text class="" x="395.224" y="685.92" font-size="11.2" font-weight="600" fill="#172033" text-anchor="middle"><tspan x="395.224" dy="0">Map Memory 23</tspan></text>

    <rect x="106" y="699" width="218" height="24" rx="8" fill="#4E79A718" stroke="#4E79A770" stroke-width="1"/>
    <text class="" x="215" y="714.92" font-size="11.2" font-weight="600" fill="#172033" text-anchor="middle"><tspan x="215" dy="0">Physically Executable Navigation 7</tspan></text>

    <rect x="340" y="699" width="218" height="24" rx="8" fill="#4E79A718" stroke="#4E79A770" stroke-width="1"/>
    <text class="" x="449" y="714.92" font-size="11.2" font-weight="600" fill="#172033" text-anchor="middle"><tspan x="449" dy="0">Urban / Open-world Navigation 20</tspan></text>
  <text class="tiny" x="106" y="756" font-size="12" font-weight="850" fill="#5f6b7a">System interface: </text>
      <text class="" x="234" y="756" font-size="12" font-weight="400" fill="#5f6b7a" text-anchor="start"><tspan x="234" dy="0">Continuous execution</tspan></text><rect x="640" y="504" width="520" height="272" rx="10" fill="#ffffff" stroke="#d9e1ea" stroke-width="1.3"/>
      <rect x="640" y="504" width="8" height="272" rx="4" fill="#E15759"/>
      <text x="666" y="538" font-size="20" font-weight="850" fill="#172033">VLA / Manipulation Policies</text>
      <text x="1130" y="538" font-size="14" font-weight="850" fill="#E15759" text-anchor="end">242 papers</text>
      <text class="tiny" x="666" y="569" font-size="12" font-weight="850" fill="#5f6b7a">Main trend</text>
      <text class="" x="666" y="595" font-size="12.8" font-weight="400" fill="#172033" text-anchor="start"><tspan x="666" dy="0">Generalist policies and diffusion/flow action generation are</tspan><tspan x="666" dy="14.847999999999999">scaling fastest; the hard interfaces are action</tspan><tspan x="666" dy="14.847999999999999">representation, 3D grounding, online tuning, and safety.</tspan></text>
      <text class="tiny" x="666" y="655" font-size="12" font-weight="850" fill="#5f6b7a">Subdirection pressure</text>
    <rect x="666" y="670" width="136.432" height="24" rx="8" fill="#E1575918" stroke="#E1575970" stroke-width="1"/>
    <text class="" x="734.216" y="685.92" font-size="11.2" font-weight="600" fill="#172033" text-anchor="middle"><tspan x="734.216" dy="0">generalist VLA 79</tspan></text>

    <rect x="900" y="670" width="181.904" height="24" rx="8" fill="#E1575918" stroke="#E1575970" stroke-width="1"/>
    <text class="" x="990.952" y="685.92" font-size="11.2" font-weight="600" fill="#172033" text-anchor="middle"><tspan x="990.952" dy="0">action representation 28</tspan></text>

    <rect x="666" y="699" width="181.904" height="24" rx="8" fill="#E1575918" stroke="#E1575970" stroke-width="1"/>
    <text class="" x="756.952" y="714.92" font-size="11.2" font-weight="600" fill="#172033" text-anchor="middle"><tspan x="756.952" dy="0">diffusion/flow policy 72</tspan></text>

    <rect x="900" y="699" width="123.43999999999998" height="24" rx="8" fill="#E1575918" stroke="#E1575970" stroke-width="1"/>
    <text class="" x="961.72" y="714.92" font-size="11.2" font-weight="600" fill="#172033" text-anchor="middle"><tspan x="961.72" dy="0">3D grounding 35</tspan></text>
  <text class="tiny" x="666" y="756" font-size="12" font-weight="850" fill="#5f6b7a">System interface: </text>
      <text class="" x="794" y="756" font-size="12" font-weight="400" fill="#5f6b7a" text-anchor="start"><tspan x="794" dy="0">Action representation</tspan></text><rect x="1200" y="504" width="520" height="272" rx="10" fill="#ffffff" stroke="#d9e1ea" stroke-width="1.3"/>
      <rect x="1200" y="504" width="8" height="272" rx="4" fill="#59A14F"/>
      <text x="1226" y="538" font-size="20" font-weight="850" fill="#172033">WAM / World Models</text>
      <text x="1690" y="538" font-size="14" font-weight="850" fill="#59A14F" text-anchor="end">70 papers</text>
      <text class="tiny" x="1226" y="569" font-size="12" font-weight="850" fill="#5f6b7a">Main trend</text>
      <text class="" x="1226" y="595" font-size="12.8" font-weight="400" fill="#172033" text-anchor="start"><tspan x="1226" dy="0">World models are becoming an imagination and verification</tspan><tspan x="1226" dy="14.847999999999999">layer between planning and control; cascaded and video/latent</tspan><tspan x="1226" dy="14.847999999999999">routes are ahead of fully joint WAM.</tspan></text>
      <text class="tiny" x="1226" y="655" font-size="12" font-weight="850" fill="#5f6b7a">Subdirection pressure</text>
    <rect x="1226" y="670" width="123.43999999999998" height="24" rx="8" fill="#59A14F18" stroke="#59A14F70" stroke-width="1"/>
    <text class="" x="1287.72" y="685.92" font-size="11.2" font-weight="600" fill="#172033" text-anchor="middle"><tspan x="1287.72" dy="0">cascaded WAM 24</tspan></text>

    <rect x="1460" y="670" width="97.45599999999999" height="24" rx="8" fill="#59A14F18" stroke="#59A14F70" stroke-width="1"/>
    <text class="" x="1508.728" y="685.92" font-size="11.2" font-weight="600" fill="#172033" text-anchor="middle"><tspan x="1508.728" dy="0">joint WAM 3</tspan></text>

    <rect x="1226" y="699" width="201.392" height="24" rx="8" fill="#59A14F18" stroke="#59A14F70" stroke-width="1"/>
    <text class="" x="1326.696" y="714.92" font-size="11.2" font-weight="600" fill="#172033" text-anchor="middle"><tspan x="1326.696" dy="0">video/latent world model 33</tspan></text>

    <rect x="1460" y="699" width="168.91199999999998" height="24" rx="8" fill="#59A14F18" stroke="#59A14F70" stroke-width="1"/>
    <text class="" x="1544.456" y="714.92" font-size="11.2" font-weight="600" fill="#172033" text-anchor="middle"><tspan x="1544.456" dy="0">world model for VLA 10</tspan></text>
  <text class="tiny" x="1226" y="756" font-size="12" font-weight="850" fill="#5f6b7a">System interface: </text>
      <text class="" x="1354" y="756" font-size="12" font-weight="400" fill="#5f6b7a" text-anchor="start"><tspan x="1354" dy="0">Grounded imagination</tspan></text><rect x="80" y="806" width="520" height="272" rx="10" fill="#ffffff" stroke="#d9e1ea" stroke-width="1.3"/>
      <rect x="80" y="806" width="8" height="272" rx="4" fill="#B07AA1"/>
      <text x="106" y="840" font-size="20" font-weight="850" fill="#172033">Planning / Reasoning</text>
      <text x="570" y="840" font-size="14" font-weight="850" fill="#B07AA1" text-anchor="end">103 papers</text>
      <text class="tiny" x="106" y="871" font-size="12" font-weight="850" fill="#5f6b7a">Main trend</text>
      <text class="" x="106" y="897" font-size="12.8" font-weight="400" fill="#172033" text-anchor="start"><tspan x="106" dy="0">Planning is shifting from task decomposition to memory,</tspan><tspan x="106" dy="14.847999999999999">failure monitoring, executable constraints, and self-improving</tspan><tspan x="106" dy="14.847999999999999">loops.</tspan></text>
      <text class="tiny" x="106" y="957" font-size="12" font-weight="850" fill="#5f6b7a">Subdirection pressure</text>
    <rect x="106" y="972" width="162.416" height="24" rx="8" fill="#B07AA118" stroke="#B07AA170" stroke-width="1"/>
    <text class="" x="187.208" y="987.92" font-size="11.2" font-weight="600" fill="#172033" text-anchor="middle"><tspan x="187.208" dy="0">Task Decomposition 40</tspan></text>

    <rect x="340" y="972" width="84.464" height="24" rx="8" fill="#B07AA118" stroke="#B07AA170" stroke-width="1"/>
    <text class="" x="382.23199999999997" y="987.92" font-size="11.2" font-weight="600" fill="#172033" text-anchor="middle"><tspan x="382.23199999999997" dy="0">memory 11</tspan></text>

    <rect x="106" y="1001" width="136.432" height="24" rx="8" fill="#B07AA118" stroke="#B07AA170" stroke-width="1"/>
    <text class="" x="174.216" y="1016.92" font-size="11.2" font-weight="600" fill="#172033" text-anchor="middle"><tspan x="174.216" dy="0">failure monitor 9</tspan></text>

    <rect x="340" y="1001" width="218" height="24" rx="8" fill="#B07AA118" stroke="#B07AA170" stroke-width="1"/>
    <text class="" x="449" y="1016.92" font-size="11.2" font-weight="600" fill="#172033" text-anchor="middle"><tspan x="449" dy="0">constraint / affordance planning 11</tspan></text>
  <text class="tiny" x="106" y="1058" font-size="12" font-weight="850" fill="#5f6b7a">System interface: </text>
      <text class="" x="234" y="1058" font-size="12" font-weight="400" fill="#5f6b7a" text-anchor="start"><tspan x="234" dy="0">Physical executability</tspan></text><rect x="640" y="806" width="520" height="272" rx="10" fill="#ffffff" stroke="#d9e1ea" stroke-width="1.3"/>
      <rect x="640" y="806" width="8" height="272" rx="4" fill="#F28E2B"/>
      <text x="666" y="840" font-size="20" font-weight="850" fill="#172033">Embodiment / Bodies</text>
      <text x="1130" y="840" font-size="14" font-weight="850" fill="#F28E2B" text-anchor="end">99 papers</text>
      <text class="tiny" x="666" y="871" font-size="12" font-weight="850" fill="#5f6b7a">Main trend</text>
      <text class="" x="666" y="897" font-size="12.8" font-weight="400" fill="#172033" text-anchor="start"><tspan x="666" dy="0">Embodiment work tests whether policies survive new bodies,</tspan><tspan x="666" dy="14.847999999999999">contact, dexterity, and coordination demands.</tspan></text>
      <text class="tiny" x="666" y="957" font-size="12" font-weight="850" fill="#5f6b7a">Subdirection pressure</text>
    <rect x="666" y="972" width="97.45599999999999" height="24" rx="8" fill="#F28E2B18" stroke="#F28E2B70" stroke-width="1"/>
    <text class="" x="714.728" y="987.92" font-size="11.2" font-weight="600" fill="#172033" text-anchor="middle"><tspan x="714.728" dy="0">humanoid 33</tspan></text>

    <rect x="900" y="972" width="97.45599999999999" height="24" rx="8" fill="#F28E2B18" stroke="#F28E2B70" stroke-width="1"/>
    <text class="" x="948.728" y="987.92" font-size="11.2" font-weight="600" fill="#172033" text-anchor="middle"><tspan x="948.728" dy="0">bimanual 13</tspan></text>

    <rect x="666" y="1001" width="136.432" height="24" rx="8" fill="#F28E2B18" stroke="#F28E2B70" stroke-width="1"/>
    <text class="" x="734.216" y="1016.92" font-size="11.2" font-weight="600" fill="#172033" text-anchor="middle"><tspan x="734.216" dy="0">dexterous hand 35</tspan></text>

    <rect x="900" y="1001" width="175.408" height="24" rx="8" fill="#F28E2B18" stroke="#F28E2B70" stroke-width="1"/>
    <text class="" x="987.704" y="1016.92" font-size="11.2" font-weight="600" fill="#172033" text-anchor="middle"><tspan x="987.704" dy="0">tactile/contact-rich 18</tspan></text>
  <text class="tiny" x="666" y="1058" font-size="12" font-weight="850" fill="#5f6b7a">System interface: </text>
      <text class="" x="794" y="1058" font-size="12" font-weight="400" fill="#5f6b7a" text-anchor="start"><tspan x="794" dy="0">Body/contact transfer</tspan></text><rect x="1200" y="806" width="520" height="272" rx="10" fill="#ffffff" stroke="#d9e1ea" stroke-width="1.3"/>
      <rect x="1200" y="806" width="8" height="272" rx="4" fill="#76B7B2"/>
      <text x="1226" y="840" font-size="20" font-weight="850" fill="#172033">Deployment / Readiness</text>
      <text x="1690" y="840" font-size="14" font-weight="850" fill="#76B7B2" text-anchor="end">101 papers</text>
      <text class="tiny" x="1226" y="871" font-size="12" font-weight="850" fill="#5f6b7a">Main trend</text>
      <text class="" x="1226" y="897" font-size="12.8" font-weight="400" fill="#172033" text-anchor="start"><tspan x="1226" dy="0">Deployment depends on credible benchmarks and data,</tspan><tspan x="1226" dy="14.847999999999999">efficiency, sim2real transfer, real-time execution, and safety</tspan><tspan x="1226" dy="14.847999999999999">evaluation.</tspan></text>
      <text class="tiny" x="1226" y="957" font-size="12" font-weight="850" fill="#5f6b7a">Subdirection pressure</text>
    <rect x="1226" y="972" width="218" height="24" rx="8" fill="#76B7B218" stroke="#76B7B270" stroke-width="1"/>
    <text class="" x="1335" y="987.92" font-size="11.2" font-weight="600" fill="#172033" text-anchor="middle"><tspan x="1335" dy="0">quantization/cache/tokenization 22</tspan></text>

    <rect x="1460" y="972" width="162.416" height="24" rx="8" fill="#76B7B218" stroke="#76B7B270" stroke-width="1"/>
    <text class="" x="1541.208" y="987.92" font-size="11.2" font-weight="600" fill="#172033" text-anchor="middle"><tspan x="1541.208" dy="0">real-time execution 6</tspan></text>

    <rect x="1226" y="1001" width="155.92" height="24" rx="8" fill="#76B7B218" stroke="#76B7B270" stroke-width="1"/>
    <text class="" x="1303.96" y="1016.92" font-size="11.2" font-weight="600" fill="#172033" text-anchor="middle"><tspan x="1303.96" dy="0">benchmark/dataset 42</tspan></text>

    <rect x="1460" y="1001" width="97.45599999999999" height="24" rx="8" fill="#76B7B218" stroke="#76B7B270" stroke-width="1"/>
    <text class="" x="1508.728" y="1016.92" font-size="11.2" font-weight="600" fill="#172033" text-anchor="middle"><tspan x="1508.728" dy="0">sim2real 18</tspan></text>

    <rect x="1226" y="1030" width="155.92" height="24" rx="8" fill="#76B7B218" stroke="#76B7B270" stroke-width="1"/>
    <text class="" x="1303.96" y="1045.92" font-size="11.2" font-weight="600" fill="#172033" text-anchor="middle"><tspan x="1303.96" dy="0">safety evaluation 13</tspan></text>
  <text class="tiny" x="1226" y="1058" font-size="12" font-weight="850" fill="#5f6b7a">System interface: </text>
      <text class="" x="1354" y="1058" font-size="12" font-weight="400" fill="#5f6b7a" text-anchor="start"><tspan x="1354" dy="0">Readiness evidence</tspan></text></svg>
