<svg xmlns="http://www.w3.org/2000/svg" width="1800" height="1200" viewBox="0 0 1800 1200">
  <style>text { font-family: Aptos, "Helvetica Neue", Helvetica, Arial, "PingFang SC", "Noto Sans SC", "Microsoft YaHei", sans-serif; }</style>

    <rect width="1800" height="1200" fill="#ffffff"/>
    <rect x="0" y="0" width="1800" height="150" fill="#f7f9fc"/>
    <text x="82" y="76" font-size="42" font-weight="800" fill="#172033">System Roadmap &amp; Trend Matrix</text>
    <text x="82" y="116" font-size="22" fill="#5f6b7a">Capability-stack view: methods, interfaces, and pressure points are separated into different reading layers.</text>
    <text x="1718" y="82" font-size="24" font-weight="700" fill="#172033" text-anchor="end">707 papers  |  6 directions  |  29 subdirections</text>
  <rect x="82" y="205" width="1633" height="540" rx="12" fill="#ffffff" stroke="#d9e1ea" stroke-width="1.5"/><rect x="82" y="205" width="1633" height="112" fill="#fbfcfe"/><line x1="82" y1="205" x2="1715" y2="205" stroke="#edf1f5" stroke-width="1.5"/><text class="tiny" x="106" y="247" font-size="14" font-weight="850" fill="#5f6b7a">Capability layer</text><rect x="82" y="317" width="1633" height="154" fill="#ffffff"/><line x1="82" y1="317" x2="1715" y2="317" stroke="#edf1f5" stroke-width="1.5"/><text class="tiny" x="106" y="359" font-size="14" font-weight="850" fill="#5f6b7a">Method anchors</text><rect x="82" y="471" width="1633" height="116" fill="#fbfcfe"/><line x1="82" y1="471" x2="1715" y2="471" stroke="#edf1f5" stroke-width="1.5"/><text class="tiny" x="106" y="513" font-size="14" font-weight="850" fill="#5f6b7a">Interface signal</text><rect x="82" y="587" width="1633" height="158" fill="#ffffff"/><line x1="82" y1="587" x2="1715" y2="587" stroke="#edf1f5" stroke-width="1.5"/><text class="tiny" x="106" y="629" font-size="14" font-weight="850" fill="#5f6b7a">Trend pressure</text><line x1="82" y1="745" x2="1715" y2="745" stroke="#edf1f5" stroke-width="1.5"/><line x1="294" y1="205" x2="294" y2="745" stroke="#d9e1ea" stroke-width="1.5"/><line x1="294" y1="205" x2="294" y2="745" stroke="#edf1f5" stroke-width="1.2"/><rect x="306" y="223" width="179" height="7" rx="3.5" fill="#4E79A7"/><text class="" x="312" y="257" font-size="22" font-weight="850" fill="#172033" text-anchor="start"><tspan x="312" dy="0">Perception</tspan></text><text class="" x="312" y="287" font-size="14" font-weight="400" fill="#5f6b7a" text-anchor="start"><tspan x="312" dy="0">scene/contact</tspan><tspan x="312" dy="17.08">state</tspan></text><path d="M479 263 H513" stroke="#172033" stroke-width="1.8"/>
            <path d="M513 263 l-9 -6 l0 12 z" fill="#172033"/><circle cx="317" cy="350" r="4.5" fill="#4E79A7"/><text class="" x="328" y="355" font-size="14" font-weight="700" fill="#172033" text-anchor="start"><tspan x="328" dy="0">F3RM / feature</tspan><tspan x="328" dy="15.680000000000001">fields</tspan></text><circle cx="317" cy="392" r="4.5" fill="#4E79A7"/><text class="" x="328" y="397" font-size="14" font-weight="700" fill="#172033" text-anchor="start"><tspan x="328" dy="0">DovSG / 3D scene</tspan><tspan x="328" dy="15.680000000000001">graph</tspan></text><circle cx="317" cy="434" r="4.5" fill="#4E79A7"/><text class="" x="328" y="439" font-size="14" font-weight="700" fill="#172033" text-anchor="start"><tspan x="328" dy="0">3D-ViTac / touch</tspan></text><rect x="312" y="486" width="167" height="24" rx="6" fill="#ffffff" stroke="#4E79A745"/>
            <text x="324" y="503" font-size="13" font-weight="750" fill="#4E79A7">3D grounding</text><rect x="312" y="517" width="167" height="24" rx="6" fill="#ffffff" stroke="#4E79A745"/>
            <text x="324" y="534" font-size="13" font-weight="750" fill="#4E79A7">map memory</text><rect x="312" y="548" width="167" height="24" rx="6" fill="#ffffff" stroke="#4E79A745"/>
            <text x="324" y="565" font-size="13" font-weight="750" fill="#4E79A7">tactile</text><text class="" x="312" y="629" font-size="14" font-weight="400" fill="#5f6b7a" text-anchor="start"><tspan x="312" dy="0">open-world spatial</tspan><tspan x="312" dy="17.08">grounding and</tspan><tspan x="312" dy="17.08">contact-rich sensing</tspan></text><line x1="497" y1="205" x2="497" y2="745" stroke="#edf1f5" stroke-width="1.2"/><rect x="509" y="223" width="179" height="7" rx="3.5" fill="#B07AA1"/><text class="" x="515" y="257" font-size="22" font-weight="850" fill="#172033" text-anchor="start"><tspan x="515" dy="0">Language</tspan></text><text class="" x="515" y="287" font-size="14" font-weight="400" fill="#5f6b7a" text-anchor="start"><tspan x="515" dy="0">intent constraints</tspan></text><path d="M682 263 H716" stroke="#172033" stroke-width="1.8"/>
            <path d="M716 263 l-9 -6 l0 12 z" fill="#172033"/><circle cx="520" cy="350" r="4.5" fill="#B07AA1"/><text class="" x="531" y="355" font-size="14" font-weight="700" fill="#172033" text-anchor="start"><tspan x="531" dy="0">LM-Nav / L/V/A</tspan><tspan x="531" dy="15.680000000000001">routing</tspan></text><circle cx="520" cy="392" r="4.5" fill="#B07AA1"/><text class="" x="531" y="397" font-size="14" font-weight="700" fill="#172033" text-anchor="start"><tspan x="531" dy="0">SayCan / affordance</tspan></text><circle cx="520" cy="434" r="4.5" fill="#B07AA1"/><text class="" x="531" y="439" font-size="14" font-weight="700" fill="#172033" text-anchor="start"><tspan x="531" dy="0">Aux-Think / VLN CoT</tspan></text><rect x="515" y="486" width="167" height="24" rx="6" fill="#ffffff" stroke="#B07AA145"/>
            <text x="527" y="503" font-size="13" font-weight="750" fill="#B07AA1">instruction</text><rect x="515" y="517" width="167" height="24" rx="6" fill="#ffffff" stroke="#B07AA145"/>
            <text x="527" y="534" font-size="13" font-weight="750" fill="#B07AA1">dialog</text><rect x="515" y="548" width="167" height="24" rx="6" fill="#ffffff" stroke="#B07AA145"/>
            <text x="527" y="565" font-size="13" font-weight="750" fill="#B07AA1">task goal</text><text class="" x="515" y="629" font-size="14" font-weight="400" fill="#5f6b7a" text-anchor="start"><tspan x="515" dy="0">turn instructions</tspan><tspan x="515" dy="17.08">into physically</tspan><tspan x="515" dy="17.08">valid goals</tspan></text><line x1="700" y1="205" x2="700" y2="745" stroke="#edf1f5" stroke-width="1.2"/><rect x="712" y="223" width="179" height="7" rx="3.5" fill="#59A14F"/><text class="" x="718" y="257" font-size="22" font-weight="850" fill="#172033" text-anchor="start"><tspan x="718" dy="0">World Model</tspan></text><text class="" x="718" y="287" font-size="14" font-weight="400" fill="#5f6b7a" text-anchor="start"><tspan x="718" dy="0">imagine + verify</tspan></text><path d="M885 263 H919" stroke="#172033" stroke-width="1.8"/>
            <path d="M919 263 l-9 -6 l0 12 z" fill="#172033"/><circle cx="723" cy="350" r="4.5" fill="#59A14F"/><text class="" x="734" y="355" font-size="14" font-weight="700" fill="#172033" text-anchor="start"><tspan x="734" dy="0">DayDreamer / robot</tspan><tspan x="734" dy="15.680000000000001">WM</tspan></text><circle cx="723" cy="392" r="4.5" fill="#59A14F"/><text class="" x="734" y="397" font-size="14" font-weight="700" fill="#172033" text-anchor="start"><tspan x="734" dy="0">Dreamitate / video</tspan><tspan x="734" dy="15.680000000000001">gen</tspan></text><circle cx="723" cy="434" r="4.5" fill="#59A14F"/><text class="" x="734" y="439" font-size="14" font-weight="700" fill="#172033" text-anchor="start"><tspan x="734" dy="0">Cosmos Policy /</tspan><tspan x="734" dy="15.680000000000001">state/action/value</tspan></text><rect x="718" y="486" width="167" height="24" rx="6" fill="#ffffff" stroke="#59A14F45"/>
            <text x="730" y="503" font-size="13" font-weight="750" fill="#59A14F">latent state</text><rect x="718" y="517" width="167" height="24" rx="6" fill="#ffffff" stroke="#59A14F45"/>
            <text x="730" y="534" font-size="13" font-weight="750" fill="#59A14F">future video</text><rect x="718" y="548" width="167" height="24" rx="6" fill="#ffffff" stroke="#59A14F45"/>
            <text x="730" y="565" font-size="13" font-weight="750" fill="#59A14F">value</text><text class="" x="718" y="629" font-size="14" font-weight="400" fill="#5f6b7a" text-anchor="start"><tspan x="718" dy="0">predict consequences</tspan><tspan x="718" dy="17.08">before action</tspan><tspan x="718" dy="17.08">execution</tspan></text><line x1="903" y1="205" x2="903" y2="745" stroke="#edf1f5" stroke-width="1.2"/><rect x="915" y="223" width="179" height="7" rx="3.5" fill="#B07AA1"/><text class="" x="921" y="257" font-size="22" font-weight="850" fill="#172033" text-anchor="start"><tspan x="921" dy="0">Planner</tspan></text><text class="" x="921" y="287" font-size="14" font-weight="400" fill="#5f6b7a" text-anchor="start"><tspan x="921" dy="0">executable plans</tspan></text><path d="M1088 263 H1122" stroke="#172033" stroke-width="1.8"/>
            <path d="M1122 263 l-9 -6 l0 12 z" fill="#172033"/><circle cx="926" cy="350" r="4.5" fill="#B07AA1"/><text class="" x="937" y="355" font-size="14" font-weight="700" fill="#172033" text-anchor="start"><tspan x="937" dy="0">SayPlan / 3D graph</tspan></text><circle cx="926" cy="392" r="4.5" fill="#B07AA1"/><text class="" x="937" y="397" font-size="14" font-weight="700" fill="#172033" text-anchor="start"><tspan x="937" dy="0">VoxPoser / value</tspan><tspan x="937" dy="15.680000000000001">maps</tspan></text><circle cx="926" cy="434" r="4.5" fill="#B07AA1"/><text class="" x="937" y="439" font-size="14" font-weight="700" fill="#172033" text-anchor="start"><tspan x="937" dy="0">Do What You Say /</tspan><tspan x="937" dy="15.680000000000001">runtime check</tspan></text><rect x="921" y="486" width="167" height="24" rx="6" fill="#ffffff" stroke="#B07AA145"/>
            <text x="933" y="503" font-size="13" font-weight="750" fill="#B07AA1">scene graph</text><rect x="921" y="517" width="167" height="24" rx="6" fill="#ffffff" stroke="#B07AA145"/>
            <text x="933" y="534" font-size="13" font-weight="750" fill="#B07AA1">value map</text><rect x="921" y="548" width="167" height="24" rx="6" fill="#ffffff" stroke="#B07AA145"/>
            <text x="933" y="565" font-size="13" font-weight="750" fill="#B07AA1">failure check</text><text class="" x="921" y="629" font-size="14" font-weight="400" fill="#5f6b7a" text-anchor="start"><tspan x="921" dy="0">keep memory,</tspan><tspan x="921" dy="17.08">constraints, and</tspan><tspan x="921" dy="17.08">recovery in the loop</tspan></text><line x1="1106" y1="205" x2="1106" y2="745" stroke="#edf1f5" stroke-width="1.2"/><rect x="1118" y="223" width="179" height="7" rx="3.5" fill="#E15759"/><text class="" x="1124" y="257" font-size="22" font-weight="850" fill="#172033" text-anchor="start"><tspan x="1124" dy="0">Policy</tspan></text><text class="" x="1124" y="287" font-size="14" font-weight="400" fill="#5f6b7a" text-anchor="start"><tspan x="1124" dy="0">action decoding</tspan></text><path d="M1291 263 H1325" stroke="#172033" stroke-width="1.8"/>
            <path d="M1325 263 l-9 -6 l0 12 z" fill="#172033"/><circle cx="1129" cy="350" r="4.5" fill="#E15759"/><text class="" x="1140" y="355" font-size="14" font-weight="700" fill="#172033" text-anchor="start"><tspan x="1140" dy="0">CLIPort /</tspan><tspan x="1140" dy="15.680000000000001">transporter</tspan></text><circle cx="1129" cy="392" r="4.5" fill="#E15759"/><text class="" x="1140" y="397" font-size="14" font-weight="700" fill="#172033" text-anchor="start"><tspan x="1140" dy="0">RT-2 / OpenVLA /</tspan><tspan x="1140" dy="15.680000000000001">VLA</tspan></text><circle cx="1129" cy="434" r="4.5" fill="#E15759"/><text class="" x="1140" y="439" font-size="14" font-weight="700" fill="#172033" text-anchor="start"><tspan x="1140" dy="0">FLOWER / flow</tspan><tspan x="1140" dy="15.680000000000001">policy</tspan></text><rect x="1124" y="486" width="167" height="24" rx="6" fill="#ffffff" stroke="#E1575945"/>
            <text x="1136" y="503" font-size="13" font-weight="750" fill="#E15759">tokens</text><rect x="1124" y="517" width="167" height="24" rx="6" fill="#ffffff" stroke="#E1575945"/>
            <text x="1136" y="534" font-size="13" font-weight="750" fill="#E15759">diffusion</text><rect x="1124" y="548" width="167" height="24" rx="6" fill="#ffffff" stroke="#E1575945"/>
            <text x="1136" y="565" font-size="13" font-weight="750" fill="#E15759">flow</text><text class="" x="1124" y="629" font-size="14" font-weight="400" fill="#5f6b7a" text-anchor="start"><tspan x="1124" dy="0">bridge</tspan><tspan x="1124" dy="17.08">language-conditioned</tspan><tspan x="1124" dy="17.08">goals to continuous</tspan><tspan x="1124" dy="17.08">control</tspan></text><line x1="1309" y1="205" x2="1309" y2="745" stroke="#edf1f5" stroke-width="1.2"/><rect x="1321" y="223" width="179" height="7" rx="3.5" fill="#F28E2B"/><text class="" x="1327" y="257" font-size="22" font-weight="850" fill="#172033" text-anchor="start"><tspan x="1327" dy="0">Embodiment</tspan></text><text class="" x="1327" y="287" font-size="14" font-weight="400" fill="#5f6b7a" text-anchor="start"><tspan x="1327" dy="0">body/contact</tspan><tspan x="1327" dy="17.08">transfer</tspan></text><path d="M1494 263 H1528" stroke="#172033" stroke-width="1.8"/>
            <path d="M1528 263 l-9 -6 l0 12 z" fill="#172033"/><circle cx="1332" cy="350" r="4.5" fill="#F28E2B"/><text class="" x="1343" y="355" font-size="14" font-weight="700" fill="#172033" text-anchor="start"><tspan x="1343" dy="0">HumanPlus /</tspan><tspan x="1343" dy="15.680000000000001">shadowing</tspan></text><circle cx="1332" cy="392" r="4.5" fill="#F28E2B"/><text class="" x="1343" y="397" font-size="14" font-weight="700" fill="#172033" text-anchor="start"><tspan x="1343" dy="0">RDT-1B / bimanual</tspan></text><circle cx="1332" cy="434" r="4.5" fill="#F28E2B"/><text class="" x="1343" y="439" font-size="14" font-weight="700" fill="#172033" text-anchor="start"><tspan x="1343" dy="0">TokenHSI /</tspan><tspan x="1343" dy="15.680000000000001">human-scene</tspan></text><rect x="1327" y="486" width="167" height="24" rx="6" fill="#ffffff" stroke="#F28E2B45"/>
            <text x="1339" y="503" font-size="13" font-weight="750" fill="#F28E2B">humanoid</text><rect x="1327" y="517" width="167" height="24" rx="6" fill="#ffffff" stroke="#F28E2B45"/>
            <text x="1339" y="534" font-size="13" font-weight="750" fill="#F28E2B">bimanual</text><rect x="1327" y="548" width="167" height="24" rx="6" fill="#ffffff" stroke="#F28E2B45"/>
            <text x="1339" y="565" font-size="13" font-weight="750" fill="#F28E2B">dexterous</text><text class="" x="1327" y="629" font-size="14" font-weight="400" fill="#5f6b7a" text-anchor="start"><tspan x="1327" dy="0">new bodies expose</tspan><tspan x="1327" dy="17.08">contact and</tspan><tspan x="1327" dy="17.08">coordination gaps</tspan></text><line x1="1512" y1="205" x2="1512" y2="745" stroke="#edf1f5" stroke-width="1.2"/><rect x="1524" y="223" width="179" height="7" rx="3.5" fill="#76B7B2"/><text class="" x="1530" y="257" font-size="22" font-weight="850" fill="#172033" text-anchor="start"><tspan x="1530" dy="0">Deployment</tspan></text><text class="" x="1530" y="287" font-size="14" font-weight="400" fill="#5f6b7a" text-anchor="start"><tspan x="1530" dy="0">readiness filter</tspan></text><circle cx="1535" cy="350" r="4.5" fill="#76B7B2"/><text class="" x="1546" y="355" font-size="14" font-weight="700" fill="#172033" text-anchor="start"><tspan x="1546" dy="0">Behavior-1K /</tspan><tspan x="1546" dy="15.680000000000001">benchmark</tspan></text><circle cx="1535" cy="392" r="4.5" fill="#76B7B2"/><text class="" x="1546" y="397" font-size="14" font-weight="700" fill="#172033" text-anchor="start"><tspan x="1546" dy="0">RoboMamba /</tspan><tspan x="1546" dy="15.680000000000001">efficient</tspan></text><circle cx="1535" cy="434" r="4.5" fill="#76B7B2"/><text class="" x="1546" y="439" font-size="14" font-weight="700" fill="#172033" text-anchor="start"><tspan x="1546" dy="0">Sim2Real VLA /</tspan><tspan x="1546" dy="15.680000000000001">transfer</tspan></text><rect x="1530" y="486" width="167" height="24" rx="6" fill="#ffffff" stroke="#76B7B245"/>
            <text x="1542" y="503" font-size="13" font-weight="750" fill="#76B7B2">benchmark</text><rect x="1530" y="517" width="167" height="24" rx="6" fill="#ffffff" stroke="#76B7B245"/>
            <text x="1542" y="534" font-size="13" font-weight="750" fill="#76B7B2">efficiency</text><rect x="1530" y="548" width="167" height="24" rx="6" fill="#ffffff" stroke="#76B7B245"/>
            <text x="1542" y="565" font-size="13" font-weight="750" fill="#76B7B2">sim2real</text><text class="" x="1530" y="629" font-size="14" font-weight="400" fill="#5f6b7a" text-anchor="start"><tspan x="1530" dy="0">benchmarks,</tspan><tspan x="1530" dy="17.08">efficiency, safety,</tspan><tspan x="1530" dy="17.08">and transfer decide</tspan><tspan x="1530" dy="17.08">readiness</tspan></text><rect x="82" y="815" width="1633" height="230" rx="12" fill="#f7f9fc" stroke="#d9e1ea" stroke-width="1.4"/><text class="tiny" x="106" y="855" font-size="14" font-weight="850" fill="#5f6b7a">CROSS-DIRECTION DEPENDENCIES</text><rect x="116" y="897" width="318" height="88" rx="8" fill="#ffffff" stroke="#4E79A770" stroke-width="1.3"/>
          <rect x="116" y="897" width="8" height="88" rx="4" fill="#4E79A7"/>
          <text x="140" y="931" font-size="18" font-weight="850" fill="#4E79A7">Navigation + language</text>
          <text class="" x="140" y="959" font-size="15" font-weight="400" fill="#5f6b7a" text-anchor="start"><tspan x="140" dy="0">set goals, routes, and</tspan><tspan x="140" dy="18.3">constraints</tspan></text><path d="M446 941 H490" stroke="#172033" stroke-width="1.8"/>
            <path d="M490 941 l-9 -6 l0 12 z" fill="#172033"/><rect x="506" y="897" width="318" height="88" rx="8" fill="#ffffff" stroke="#59A14F70" stroke-width="1.3"/>
          <rect x="506" y="897" width="8" height="88" rx="4" fill="#59A14F"/>
          <text x="530" y="931" font-size="18" font-weight="850" fill="#59A14F">World model + planner</text>
          <text class="" x="530" y="959" font-size="15" font-weight="400" fill="#5f6b7a" text-anchor="start"><tspan x="530" dy="0">verify futures, repair</tspan><tspan x="530" dy="18.3">failures, reuse memory</tspan></text><path d="M836 941 H880" stroke="#172033" stroke-width="1.8"/>
            <path d="M880 941 l-9 -6 l0 12 z" fill="#172033"/><rect x="896" y="897" width="318" height="88" rx="8" fill="#ffffff" stroke="#E1575970" stroke-width="1.3"/>
          <rect x="896" y="897" width="8" height="88" rx="4" fill="#E15759"/>
          <text x="920" y="931" font-size="18" font-weight="850" fill="#E15759">Policy + embodiment</text>
          <text class="" x="920" y="959" font-size="15" font-weight="400" fill="#5f6b7a" text-anchor="start"><tspan x="920" dy="0">translate plans into</tspan><tspan x="920" dy="18.3">body-specific actions</tspan></text><path d="M1226 941 H1270" stroke="#172033" stroke-width="1.8"/>
            <path d="M1270 941 l-9 -6 l0 12 z" fill="#172033"/><rect x="1286" y="897" width="318" height="88" rx="8" fill="#ffffff" stroke="#76B7B270" stroke-width="1.3"/>
          <rect x="1286" y="897" width="8" height="88" rx="4" fill="#76B7B2"/>
          <text x="1310" y="931" font-size="18" font-weight="850" fill="#76B7B2">Deployment filter</text>
          <text class="" x="1310" y="959" font-size="15" font-weight="400" fill="#5f6b7a" text-anchor="start"><tspan x="1310" dy="0">tests efficiency, safety,</tspan><tspan x="1310" dy="18.3">sim2real, and benchmark</tspan><tspan x="1310" dy="18.3">coverage</tspan></text><text x="106" y="1022" font-size="17" fill="#5f6b7a">Reading: the system chain is only mature when perception, planning, action, embodiment, and deployment evidence close the same loop.</text></svg>