<svg xmlns="http://www.w3.org/2000/svg" width="1800" height="1200" viewBox="0 0 1800 1200">
  <style>text { font-family: Aptos, "Helvetica Neue", Helvetica, Arial, "PingFang SC", "Noto Sans SC", "Microsoft YaHei", sans-serif; }</style>

    <rect width="1800" height="1200" fill="#ffffff"/>
    <rect x="0" y="0" width="1800" height="150" fill="#f7f9fc"/>
    <text x="82" y="76" font-size="42" font-weight="800" fill="#172033">演化与方法脉络</text>
    <text x="82" y="116" font-size="22" fill="#5f6b7a">代表方法按 2022-2026 年份与研究方向排列。</text>
    <text x="1718" y="82" font-size="24" font-weight="700" fill="#172033" text-anchor="end">707 篇论文  |  6 个方向  |  29 个子方向</text>
  <rect x="80" y="158" width="1640" height="840" rx="12" fill="#ffffff" stroke="#d9e1ea" stroke-width="1.5"/><text x="392" y="198" font-size="25" font-weight="800" fill="#172033" text-anchor="middle">2022</text><line x1="255" y1="222" x2="255" y2="1014" stroke="#edf1f5" stroke-width="2"/><text x="666" y="198" font-size="25" font-weight="800" fill="#172033" text-anchor="middle">2023</text><line x1="529" y1="222" x2="529" y2="1014" stroke="#edf1f5" stroke-width="2"/><text x="940" y="198" font-size="25" font-weight="800" fill="#172033" text-anchor="middle">2024</text><line x1="803" y1="222" x2="803" y2="1014" stroke="#edf1f5" stroke-width="2"/><text x="1214" y="198" font-size="25" font-weight="800" fill="#172033" text-anchor="middle">2025</text><line x1="1077" y1="222" x2="1077" y2="1014" stroke="#edf1f5" stroke-width="2"/><text x="1488" y="198" font-size="25" font-weight="800" fill="#172033" text-anchor="middle">2026</text><line x1="1351" y1="222" x2="1351" y2="1014" stroke="#edf1f5" stroke-width="2"/><line x1="1625" y1="222" x2="1625" y2="1014" stroke="#edf1f5" stroke-width="2"/><rect x="80" y="222" width="1640" height="132" fill="#ffffff"/><line x1="80" y1="222" x2="1720" y2="222" stroke="#edf1f5" stroke-width="1.5"/><text x="104" y="267" font-size="25" font-weight="800" fill="#4E79A7">VLN</text><text x="104" y="300" font-size="17" fill="#5f6b7a">导航</text><rect x="104" y="318" width="82" height="20" rx="5" fill="#4E79A718" stroke="#4E79A770"/><text x="145" y="333" font-size="14" font-weight="800" fill="#4E79A7" text-anchor="middle">92</text><rect x="281" y="253" width="222" height="80" rx="9" fill="#ffffff" stroke="#4E79A775" stroke-width="1.4"/><circle cx="303" cy="275" r="7" fill="#4E79A7"/><text class="" x="321" y="280" font-size="17" font-weight="750" fill="#172033" text-anchor="start"><tspan x="321" dy="0">LM-Nav</tspan></text><text x="485" y="318" font-size="13" font-weight="750" fill="#4E79A7" text-anchor="end">连续 VLN</text><rect x="555" y="253" width="222" height="80" rx="9" fill="#ffffff" stroke="#4E79A775" stroke-width="1.4"/><circle cx="577" cy="275" r="7" fill="#4E79A7"/><text class="" x="595" y="280" font-size="17" font-weight="750" fill="#172033" text-anchor="start"><tspan x="595" dy="0">AZHP</tspan></text><text x="759" y="318" font-size="13" font-weight="750" fill="#4E79A7" text-anchor="end">分层 VLN</text><rect x="829" y="253" width="222" height="80" rx="9" fill="#ffffff" stroke="#4E79A775" stroke-width="1.4"/><circle cx="851" cy="275" r="7" fill="#4E79A7"/><text class="" x="869" y="280" font-size="17" font-weight="750" fill="#172033" text-anchor="start"><tspan x="869" dy="0">GOAT-Bench / Mobility</tspan><tspan x="869" dy="20.74">VLA</tspan></text><text x="1033" y="318" font-size="13" font-weight="750" fill="#4E79A7" text-anchor="end">终身/图导航</text><rect x="1103" y="253" width="222" height="80" rx="9" fill="#ffffff" stroke="#4E79A775" stroke-width="1.4"/><circle cx="1125" cy="275" r="7" fill="#4E79A7"/><text class="" x="1143" y="280" font-size="17" font-weight="750" fill="#172033" text-anchor="start"><tspan x="1143" dy="0">Search-TTA</tspan></text><text x="1307" y="318" font-size="13" font-weight="750" fill="#4E79A7" text-anchor="end">测试时导航</text><rect x="80" y="354" width="1640" height="132" fill="#fbfcfe"/><line x1="80" y1="354" x2="1720" y2="354" stroke="#edf1f5" stroke-width="1.5"/><text x="104" y="399" font-size="25" font-weight="800" fill="#E15759">VLA</text><text x="104" y="432" font-size="17" fill="#5f6b7a">操作</text><rect x="104" y="450" width="82" height="20" rx="5" fill="#E1575918" stroke="#E1575970"/><text x="145" y="465" font-size="14" font-weight="800" fill="#E15759" text-anchor="middle">242</text><rect x="281" y="385" width="222" height="80" rx="9" fill="#ffffff" stroke="#E1575975" stroke-width="1.4"/><circle cx="303" cy="407" r="7" fill="#E15759"/><text class="" x="321" y="412" font-size="17" font-weight="750" fill="#172033" text-anchor="start"><tspan x="321" dy="0">CLIPort</tspan></text><text x="485" y="450" font-size="13" font-weight="750" fill="#E15759" text-anchor="end">语义/空间策略</text><rect x="555" y="385" width="222" height="80" rx="9" fill="#ffffff" stroke="#E1575975" stroke-width="1.4"/><circle cx="577" cy="407" r="7" fill="#E15759"/><text class="" x="595" y="412" font-size="17" font-weight="750" fill="#172033" text-anchor="start"><tspan x="595" dy="0">RT-2</tspan></text><text x="759" y="450" font-size="13" font-weight="750" fill="#E15759" text-anchor="end">网络知识到控制</text><rect x="829" y="385" width="222" height="80" rx="9" fill="#ffffff" stroke="#E1575975" stroke-width="1.4"/><circle cx="851" cy="407" r="7" fill="#E15759"/><text class="" x="869" y="412" font-size="17" font-weight="750" fill="#172033" text-anchor="start"><tspan x="869" dy="0">OpenVLA</tspan></text><text x="1033" y="450" font-size="13" font-weight="750" fill="#E15759" text-anchor="end">开放 VLA</text><rect x="1103" y="385" width="222" height="80" rx="9" fill="#ffffff" stroke="#E1575975" stroke-width="1.4"/><circle cx="1125" cy="407" r="7" fill="#E15759"/><text class="" x="1143" y="412" font-size="17" font-weight="750" fill="#172033" text-anchor="start"><tspan x="1143" dy="0">FLOWER / DiffusionVLA</tspan></text><text x="1307" y="450" font-size="13" font-weight="750" fill="#E15759" text-anchor="end">flow/diffusion</text><rect x="80" y="486" width="1640" height="132" fill="#ffffff"/><line x1="80" y1="486" x2="1720" y2="486" stroke="#edf1f5" stroke-width="1.5"/><text x="104" y="531" font-size="25" font-weight="800" fill="#59A14F">WAM</text><text x="104" y="564" font-size="17" fill="#5f6b7a">世界模型</text><rect x="104" y="582" width="82" height="20" rx="5" fill="#59A14F18" stroke="#59A14F70"/><text x="145" y="597" font-size="14" font-weight="800" fill="#59A14F" text-anchor="middle">70</text><rect x="281" y="517" width="222" height="80" rx="9" fill="#ffffff" stroke="#59A14F75" stroke-width="1.4"/><circle cx="303" cy="539" r="7" fill="#59A14F"/><text class="" x="321" y="544" font-size="17" font-weight="750" fill="#172033" text-anchor="start"><tspan x="321" dy="0">DayDreamer</tspan></text><text x="485" y="582" font-size="13" font-weight="750" fill="#59A14F" text-anchor="end">真实机器人 WM</text><rect x="829" y="517" width="222" height="80" rx="9" fill="#ffffff" stroke="#59A14F75" stroke-width="1.4"/><circle cx="851" cy="539" r="7" fill="#59A14F"/><text class="" x="869" y="544" font-size="17" font-weight="750" fill="#172033" text-anchor="start"><tspan x="869" dy="0">Dreamitate</tspan></text><text x="1033" y="582" font-size="13" font-weight="750" fill="#59A14F" text-anchor="end">视频生成</text><rect x="1103" y="517" width="222" height="80" rx="9" fill="#ffffff" stroke="#59A14F75" stroke-width="1.4"/><circle cx="1125" cy="539" r="7" fill="#59A14F"/><text class="" x="1143" y="544" font-size="17" font-weight="750" fill="#172033" text-anchor="start"><tspan x="1143" dy="0">Gen2Act</tspan></text><text x="1307" y="582" font-size="13" font-weight="750" fill="#59A14F" text-anchor="end">人类视频到机器人</text><rect x="1377" y="517" width="222" height="80" rx="9" fill="#ffffff" stroke="#59A14F75" stroke-width="1.4"/><circle cx="1399" cy="539" r="7" fill="#59A14F"/><text class="" x="1417" y="544" font-size="17" font-weight="750" fill="#172033" text-anchor="start"><tspan x="1417" dy="0">VLA-JEPA / Cosmos</tspan><tspan x="1417" dy="20.74">策略</tspan></text><text x="1581" y="582" font-size="13" font-weight="750" fill="#59A14F" text-anchor="end">latent/视频策略</text><rect x="80" y="618" width="1640" height="132" fill="#fbfcfe"/><line x1="80" y1="618" x2="1720" y2="618" stroke="#edf1f5" stroke-width="1.5"/><text x="104" y="663" font-size="25" font-weight="800" fill="#B07AA1">规划</text><text x="104" y="696" font-size="17" fill="#5f6b7a">规划</text><rect x="104" y="714" width="82" height="20" rx="5" fill="#B07AA118" stroke="#B07AA170"/><text x="145" y="729" font-size="14" font-weight="800" fill="#B07AA1" text-anchor="middle">103</text><rect x="281" y="649" width="222" height="80" rx="9" fill="#ffffff" stroke="#B07AA175" stroke-width="1.4"/><circle cx="303" cy="671" r="7" fill="#B07AA1"/><text class="" x="321" y="676" font-size="17" font-weight="750" fill="#172033" text-anchor="start"><tspan x="321" dy="0">SayCan</tspan></text><text x="485" y="714" font-size="13" font-weight="750" fill="#B07AA1" text-anchor="end">可供性定位</text><rect x="555" y="649" width="222" height="80" rx="9" fill="#ffffff" stroke="#B07AA175" stroke-width="1.4"/><circle cx="577" cy="671" r="7" fill="#B07AA1"/><text class="" x="595" y="676" font-size="17" font-weight="750" fill="#172033" text-anchor="start"><tspan x="595" dy="0">SayPlan / VoxPoser</tspan></text><text x="759" y="714" font-size="13" font-weight="750" fill="#B07AA1" text-anchor="end">3D 图+价值图</text><rect x="1103" y="649" width="222" height="80" rx="9" fill="#ffffff" stroke="#B07AA175" stroke-width="1.4"/><circle cx="1125" cy="671" r="7" fill="#B07AA1"/><text class="" x="1143" y="676" font-size="17" font-weight="750" fill="#172033" text-anchor="start"><tspan x="1143" dy="0">RoboChemist</tspan></text><text x="1307" y="714" font-size="13" font-weight="750" fill="#B07AA1" text-anchor="end">安全约束规划</text><rect x="1377" y="649" width="222" height="80" rx="9" fill="#ffffff" stroke="#B07AA175" stroke-width="1.4"/><circle cx="1399" cy="671" r="7" fill="#B07AA1"/><text class="" x="1417" y="676" font-size="17" font-weight="750" fill="#172033" text-anchor="start"><tspan x="1417" dy="0">Self-improving Loops</tspan></text><text x="1581" y="714" font-size="13" font-weight="750" fill="#B07AA1" text-anchor="end">在线反馈</text><rect x="80" y="750" width="1640" height="132" fill="#ffffff"/><line x1="80" y1="750" x2="1720" y2="750" stroke="#edf1f5" stroke-width="1.5"/><text x="104" y="795" font-size="25" font-weight="800" fill="#F28E2B">本体</text><text x="104" y="828" font-size="17" fill="#5f6b7a">本体</text><rect x="104" y="846" width="82" height="20" rx="5" fill="#F28E2B18" stroke="#F28E2B70"/><text x="145" y="861" font-size="14" font-weight="800" fill="#F28E2B" text-anchor="middle">99</text><rect x="555" y="781" width="222" height="80" rx="9" fill="#ffffff" stroke="#F28E2B75" stroke-width="1.4"/><circle cx="577" cy="803" r="7" fill="#F28E2B"/><text class="" x="595" y="808" font-size="17" font-weight="750" fill="#172033" text-anchor="start"><tspan x="595" dy="0">In-hand Rotation</tspan></text><text x="759" y="846" font-size="13" font-weight="750" fill="#F28E2B" text-anchor="end">视觉+触觉</text><rect x="829" y="781" width="222" height="80" rx="9" fill="#ffffff" stroke="#F28E2B75" stroke-width="1.4"/><circle cx="851" cy="803" r="7" fill="#F28E2B"/><text class="" x="869" y="808" font-size="17" font-weight="750" fill="#172033" text-anchor="start"><tspan x="869" dy="0">HumanPlus / 3D-ViTac</tspan></text><text x="1033" y="846" font-size="13" font-weight="750" fill="#F28E2B" text-anchor="end">人形 + 触觉</text><rect x="1103" y="781" width="222" height="80" rx="9" fill="#ffffff" stroke="#F28E2B75" stroke-width="1.4"/><circle cx="1125" cy="803" r="7" fill="#F28E2B"/><text class="" x="1143" y="808" font-size="17" font-weight="750" fill="#172033" text-anchor="start"><tspan x="1143" dy="0">RDT-1B / TokenHSI</tspan></text><text x="1307" y="846" font-size="13" font-weight="750" fill="#F28E2B" text-anchor="end">双臂+场景接触</text><rect x="80" y="882" width="1640" height="132" fill="#fbfcfe"/><line x1="80" y1="882" x2="1720" y2="882" stroke="#edf1f5" stroke-width="1.5"/><text x="104" y="927" font-size="25" font-weight="800" fill="#76B7B2">部署</text><text x="104" y="960" font-size="17" fill="#5f6b7a">部署准备</text><rect x="104" y="978" width="82" height="20" rx="5" fill="#76B7B218" stroke="#76B7B270"/><text x="145" y="993" font-size="14" font-weight="800" fill="#76B7B2" text-anchor="middle">101</text><rect x="555" y="913" width="222" height="80" rx="9" fill="#ffffff" stroke="#76B7B275" stroke-width="1.4"/><circle cx="577" cy="935" r="7" fill="#76B7B2"/><text class="" x="595" y="940" font-size="17" font-weight="750" fill="#172033" text-anchor="start"><tspan x="595" dy="0">Behavior-1K</tspan></text><text x="759" y="978" font-size="13" font-weight="750" fill="#76B7B2" text-anchor="end">1000 项活动</text><rect x="829" y="913" width="222" height="80" rx="9" fill="#ffffff" stroke="#76B7B275" stroke-width="1.4"/><circle cx="851" cy="935" r="7" fill="#76B7B2"/><text class="" x="869" y="940" font-size="17" font-weight="750" fill="#172033" text-anchor="start"><tspan x="869" dy="0">DriveVLM</tspan></text><text x="1033" y="978" font-size="13" font-weight="750" fill="#76B7B2" text-anchor="end">安全/评测</text><rect x="1103" y="913" width="222" height="80" rx="9" fill="#ffffff" stroke="#76B7B275" stroke-width="1.4"/><circle cx="1125" cy="935" r="7" fill="#76B7B2"/><text class="" x="1143" y="940" font-size="17" font-weight="750" fill="#172033" text-anchor="start"><tspan x="1143" dy="0">RoboMamba / UnrealZoo</tspan></text><text x="1307" y="978" font-size="13" font-weight="750" fill="#76B7B2" text-anchor="end">高效+世界</text><rect x="1377" y="913" width="222" height="80" rx="9" fill="#ffffff" stroke="#76B7B275" stroke-width="1.4"/><circle cx="1399" cy="935" r="7" fill="#76B7B2"/><text class="" x="1417" y="940" font-size="17" font-weight="750" fill="#172033" text-anchor="start"><tspan x="1417" dy="0">Sim2Real VLA</tspan></text><text x="1581" y="978" font-size="13" font-weight="750" fill="#76B7B2" text-anchor="end">合成到真实</text><line x1="80" y1="1014" x2="1720" y2="1014" stroke="#edf1f5" stroke-width="1.5"/>
    <text x="90" y="1065" font-size="20" fill="#5f6b7a">
      方法名和年份按表格记录排布；泳道位置表示其系统贡献环节。
    </text>
  </svg>
