<svg xmlns="http://www.w3.org/2000/svg" width="1800" height="1200" viewBox="0 0 1800 1200">
  <defs>
    <marker id="arrow" markerWidth="12" markerHeight="8" refX="9" refY="4" orient="auto" markerUnits="strokeWidth">
      <path d="M0,0 L10,4 L0,8 Z" fill="#7b8798"/>
    </marker>
  </defs>
  <style>text { font-family: Aptos, "Helvetica Neue", Helvetica, Arial, "PingFang SC", "Noto Sans SC", "Microsoft YaHei", sans-serif; }</style>

    <rect width="1800" height="1200" fill="#ffffff"/>
    <rect x="0" y="0" width="1800" height="150" fill="#f7f9fc"/>
    <text x="82" y="76" font-size="42" font-weight="800" fill="#172033">系统路线与趋势矩阵</text>
    <text x="82" y="116" font-size="22" fill="#5f6b7a">从 707 篇论文中抽取系统链路、代表方法、6 个方向趋势和 29 个子方向压力，强调具身智能系统如何组合。</text>
    <text x="1718" y="82" font-size="24" font-weight="700" fill="#172033" text-anchor="end">707 篇论文  |  6 个方向  |  29 个子方向</text>
  <text class="tiny" x="80" y="152" font-size="13" font-weight="850" fill="#5f6b7a">系统链路</text><rect x="72" y="174" width="214" height="92" rx="10" fill="#ffffff" stroke="#4E79A7" stroke-width="1.7"/>
      <rect x="72" y="174" width="214" height="7" rx="3.5" fill="#4E79A7"/>
      <text class="" x="88" y="215" font-size="20" font-weight="850" fill="#172033" text-anchor="start"><tspan x="88" dy="0">感知</tspan></text>
      <text class="" x="88" y="242" font-size="12" font-weight="400" fill="#5f6b7a" text-anchor="start"><tspan x="88" dy="0">观察状态 / 3D 定位 /</tspan><tspan x="88" dy="14.399999999999999">地图记忆</tspan></text><path d="M291 220 H299" stroke="#7b8798" stroke-width="2" marker-end="url(#arrow)"/><rect x="304" y="174" width="214" height="92" rx="10" fill="#ffffff" stroke="#B07AA1" stroke-width="1.7"/>
      <rect x="304" y="174" width="214" height="7" rx="3.5" fill="#B07AA1"/>
      <text class="" x="320" y="215" font-size="20" font-weight="850" fill="#172033" text-anchor="start"><tspan x="320" dy="0">语言</tspan></text>
      <text class="" x="320" y="242" font-size="12" font-weight="400" fill="#5f6b7a" text-anchor="start"><tspan x="320" dy="0">指令分解 / 状态描述 /</tspan><tspan x="320" dy="14.399999999999999">失败解释</tspan></text><path d="M523 220 H531" stroke="#7b8798" stroke-width="2" marker-end="url(#arrow)"/><rect x="536" y="174" width="214" height="92" rx="10" fill="#ffffff" stroke="#59A14F" stroke-width="1.7"/>
      <rect x="536" y="174" width="214" height="7" rx="3.5" fill="#59A14F"/>
      <text class="" x="552" y="215" font-size="20" font-weight="850" fill="#172033" text-anchor="start"><tspan x="552" dy="0">世界模型</tspan></text>
      <text class="" x="552" y="242" font-size="12" font-weight="400" fill="#5f6b7a" text-anchor="start"><tspan x="552" dy="0">未来状态 / 想象轨迹 /</tspan><tspan x="552" dy="14.399999999999999">验证分数</tspan></text><path d="M755 220 H763" stroke="#7b8798" stroke-width="2" marker-end="url(#arrow)"/><rect x="768" y="174" width="214" height="92" rx="10" fill="#ffffff" stroke="#B07AA1" stroke-width="1.7"/>
      <rect x="768" y="174" width="214" height="7" rx="3.5" fill="#B07AA1"/>
      <text class="" x="784" y="215" font-size="20" font-weight="850" fill="#172033" text-anchor="start"><tspan x="784" dy="0">规划器</tspan></text>
      <text class="" x="784" y="242" font-size="12" font-weight="400" fill="#5f6b7a" text-anchor="start"><tspan x="784" dy="0">约束 / 可供性 / 代价 /</tspan><tspan x="784" dy="14.399999999999999">恢复</tspan></text><path d="M987 220 H995" stroke="#7b8798" stroke-width="2" marker-end="url(#arrow)"/><rect x="1000" y="174" width="214" height="92" rx="10" fill="#ffffff" stroke="#E15759" stroke-width="1.7"/>
      <rect x="1000" y="174" width="214" height="7" rx="3.5" fill="#E15759"/>
      <text class="" x="1016" y="215" font-size="20" font-weight="850" fill="#172033" text-anchor="start"><tspan x="1016" dy="0">策略</tspan></text>
      <text class="" x="1016" y="242" font-size="12" font-weight="400" fill="#5f6b7a" text-anchor="start"><tspan x="1016" dy="0">动作 token / 轨迹 /</tspan><tspan x="1016" dy="14.399999999999999">在线微调</tspan></text><path d="M1219 220 H1227" stroke="#7b8798" stroke-width="2" marker-end="url(#arrow)"/><rect x="1232" y="174" width="214" height="92" rx="10" fill="#ffffff" stroke="#F28E2B" stroke-width="1.7"/>
      <rect x="1232" y="174" width="214" height="7" rx="3.5" fill="#F28E2B"/>
      <text class="" x="1248" y="215" font-size="20" font-weight="850" fill="#172033" text-anchor="start"><tspan x="1248" dy="0">本体</tspan></text>
      <text class="" x="1248" y="242" font-size="12" font-weight="400" fill="#5f6b7a" text-anchor="start"><tspan x="1248" dy="0">身体形态 / 接触 / 协同</tspan><tspan x="1248" dy="14.399999999999999">/ 灵巧性</tspan></text><path d="M1451 220 H1459" stroke="#7b8798" stroke-width="2" marker-end="url(#arrow)"/><rect x="1464" y="174" width="214" height="92" rx="10" fill="#ffffff" stroke="#76B7B2" stroke-width="1.7"/>
      <rect x="1464" y="174" width="214" height="7" rx="3.5" fill="#76B7B2"/>
      <text class="" x="1480" y="215" font-size="20" font-weight="850" fill="#172033" text-anchor="start"><tspan x="1480" dy="0">部署</tspan></text>
      <text class="" x="1480" y="242" font-size="12" font-weight="400" fill="#5f6b7a" text-anchor="start"><tspan x="1480" dy="0">延迟 / 数据可信度 /</tspan><tspan x="1480" dy="14.399999999999999">sim2real / 安全</tspan></text><text class="tiny" x="80" y="292" font-size="13" font-weight="850" fill="#5f6b7a">方法锚点</text><rect x="72" y="314" width="214" height="136" rx="8" fill="#4E79A712" stroke="#4E79A755" stroke-width="1.2"/>
    <rect x="86" y="336" width="105.74399999999999" height="24" rx="8" fill="#4E79A718" stroke="#4E79A770" stroke-width="1"/>
    <text class="" x="138.87199999999999" y="351.92" font-size="11.2" font-weight="600" fill="#172033" text-anchor="middle"><tspan x="138.87199999999999" dy="0">F3RM / 特征场</tspan></text>

    <rect x="86" y="372" width="131.728" height="24" rx="8" fill="#4E79A718" stroke="#4E79A770" stroke-width="1"/>
    <text class="" x="151.864" y="387.92" font-size="11.2" font-weight="600" fill="#172033" text-anchor="middle"><tspan x="151.864" dy="0">DovSG / 3D 场景图</tspan></text>

    <rect x="86" y="408" width="151.21599999999995" height="24" rx="8" fill="#4E79A718" stroke="#4E79A770" stroke-width="1"/>
    <text class="" x="161.60799999999998" y="423.92" font-size="11.2" font-weight="600" fill="#172033" text-anchor="middle"><tspan x="161.60799999999998" dy="0">CLIP-Fields / 语义场</tspan></text>
  <rect x="304" y="314" width="214" height="136" rx="8" fill="#B07AA112" stroke="#B07AA155" stroke-width="1.2"/>
    <rect x="318" y="336" width="130.15999999999997" height="24" rx="8" fill="#B07AA118" stroke="#B07AA170" stroke-width="1"/>
    <text class="" x="383.08" y="351.92" font-size="11.2" font-weight="600" fill="#172033" text-anchor="middle"><tspan x="383.08" dy="0">SayCan / 任务约束</tspan></text>

    <rect x="318" y="372" width="165.77599999999998" height="24" rx="8" fill="#B07AA118" stroke="#B07AA170" stroke-width="1"/>
    <text class="" x="400.888" y="387.92" font-size="11.2" font-weight="600" fill="#172033" text-anchor="middle"><tspan x="400.888" dy="0">Inner Monologue / 反馈</tspan></text>

    <rect x="318" y="408" width="113.80799999999999" height="24" rx="8" fill="#B07AA118" stroke="#B07AA170" stroke-width="1"/>
    <text class="" x="374.904" y="423.92" font-size="11.2" font-weight="600" fill="#172033" text-anchor="middle"><tspan x="374.904" dy="0">Voyager / 记忆</tspan></text>
  <rect x="536" y="314" width="214" height="136" rx="8" fill="#59A14F12" stroke="#59A14F55" stroke-width="1.2"/>
    <rect x="550" y="336" width="186" height="24" rx="8" fill="#59A14F18" stroke="#59A14F70" stroke-width="1"/>
    <text class="" x="643" y="351.92" font-size="11.2" font-weight="600" fill="#172033" text-anchor="middle"><tspan x="643" dy="0">DayDreamer / 机器人世界模型</tspan></text>

    <rect x="550" y="372" width="156.14399999999998" height="24" rx="8" fill="#59A14F18" stroke="#59A14F70" stroke-width="1"/>
    <text class="" x="628.072" y="387.92" font-size="11.2" font-weight="600" fill="#172033" text-anchor="middle"><tspan x="628.072" dy="0">Dreamitate / 视频生成</tspan></text>

    <rect x="550" y="408" width="146.28799999999995" height="24" rx="8" fill="#59A14F18" stroke="#59A14F70" stroke-width="1"/>
    <text class="" x="623.144" y="423.92" font-size="11.2" font-weight="600" fill="#172033" text-anchor="middle"><tspan x="623.144" dy="0">Genie / latent 交互</tspan></text>
  <rect x="768" y="314" width="214" height="136" rx="8" fill="#B07AA112" stroke="#B07AA155" stroke-width="1.2"/>
    <rect x="782" y="336" width="136.65599999999998" height="24" rx="8" fill="#B07AA118" stroke="#B07AA170" stroke-width="1"/>
    <text class="" x="850.328" y="351.92" font-size="11.2" font-weight="600" fill="#172033" text-anchor="middle"><tspan x="850.328" dy="0">SayPlan / 分层规划</tspan></text>

    <rect x="782" y="372" width="131.728" height="24" rx="8" fill="#B07AA118" stroke="#B07AA170" stroke-width="1"/>
    <text class="" x="847.864" y="387.92" font-size="11.2" font-weight="600" fill="#172033" text-anchor="middle"><tspan x="847.864" dy="0">VoxPoser / 价值图</tspan></text>

    <rect x="782" y="408" width="186" height="24" rx="8" fill="#B07AA118" stroke="#B07AA170" stroke-width="1"/>
    <text class="" x="875" y="423.92" font-size="11.2" font-weight="600" fill="#172033" text-anchor="middle"><tspan x="875" dy="0">Code-as-Policies / 程序策略</tspan></text>
  <rect x="1000" y="314" width="214" height="136" rx="8" fill="#E1575912" stroke="#E1575955" stroke-width="1.2"/>
    <rect x="1014" y="336" width="120.30399999999999" height="24" rx="8" fill="#E1575918" stroke="#E1575970" stroke-width="1"/>
    <text class="" x="1074.152" y="351.92" font-size="11.2" font-weight="600" fill="#172033" text-anchor="middle"><tspan x="1074.152" dy="0">RT-2 / 通用 VLA</tspan></text>

    <rect x="1014" y="372" width="136.65599999999998" height="24" rx="8" fill="#E1575918" stroke="#E1575970" stroke-width="1"/>
    <text class="" x="1082.328" y="387.92" font-size="11.2" font-weight="600" fill="#172033" text-anchor="middle"><tspan x="1082.328" dy="0">OpenVLA / 开源策略</tspan></text>

    <rect x="1014" y="408" width="139.79199999999997" height="24" rx="8" fill="#E1575918" stroke="#E1575970" stroke-width="1"/>
    <text class="" x="1083.896" y="423.92" font-size="11.2" font-weight="600" fill="#172033" text-anchor="middle"><tspan x="1083.896" dy="0">FLOWER / flow 策略</tspan></text>
  <rect x="1232" y="314" width="214" height="136" rx="8" fill="#F28E2B12" stroke="#F28E2B55" stroke-width="1.2"/>
    <rect x="1246" y="336" width="100.81599999999999" height="24" rx="8" fill="#F28E2B18" stroke="#F28E2B70" stroke-width="1"/>
    <text class="" x="1296.408" y="351.92" font-size="11.2" font-weight="600" fill="#172033" text-anchor="middle"><tspan x="1296.408" dy="0">ALOHA / 双臂</tspan></text>

    <rect x="1246" y="372" width="186" height="24" rx="8" fill="#F28E2B18" stroke="#F28E2B70" stroke-width="1"/>
    <text class="" x="1339" y="387.92" font-size="11.2" font-weight="600" fill="#172033" text-anchor="middle"><tspan x="1339" dy="0">Diffusion Policy / 接触控制</tspan></text>

    <rect x="1246" y="408" width="100.81599999999999" height="24" rx="8" fill="#F28E2B18" stroke="#F28E2B70" stroke-width="1"/>
    <text class="" x="1296.408" y="423.92" font-size="11.2" font-weight="600" fill="#172033" text-anchor="middle"><tspan x="1296.408" dy="0">HOVER / 人形</tspan></text>
  <rect x="1464" y="314" width="214" height="136" rx="8" fill="#76B7B212" stroke="#76B7B255" stroke-width="1.2"/>
    <rect x="1478" y="336" width="136.65599999999998" height="24" rx="8" fill="#76B7B218" stroke="#76B7B270" stroke-width="1"/>
    <text class="" x="1546.328" y="351.92" font-size="11.2" font-weight="600" fill="#172033" text-anchor="middle"><tspan x="1546.328" dy="0">TinyVLA / 高效策略</tspan></text>

    <rect x="1478" y="372" width="136.65599999999998" height="24" rx="8" fill="#76B7B218" stroke="#76B7B270" stroke-width="1"/>
    <text class="" x="1546.328" y="387.92" font-size="11.2" font-weight="600" fill="#172033" text-anchor="middle"><tspan x="1546.328" dy="0">LeRobot / 数据流程</tspan></text>

    <rect x="1478" y="408" width="136.65599999999998" height="24" rx="8" fill="#76B7B218" stroke="#76B7B270" stroke-width="1"/>
    <text class="" x="1546.328" y="423.92" font-size="11.2" font-weight="600" fill="#172033" text-anchor="middle"><tspan x="1546.328" dy="0">RoboVQA / 运行检查</tspan></text>
  <text class="tiny" x="80" y="480" font-size="13" font-weight="850" fill="#5f6b7a">趋势层</text><rect x="80" y="504" width="520" height="272" rx="10" fill="#ffffff" stroke="#d9e1ea" stroke-width="1.3"/>
      <rect x="80" y="504" width="8" height="272" rx="4" fill="#4E79A7"/>
      <text x="106" y="538" font-size="18" font-weight="850" fill="#172033">VLN 视觉语言导航</text>
      <text x="570" y="538" font-size="14" font-weight="850" fill="#4E79A7" text-anchor="end">92篇</text>
      <text class="tiny" x="106" y="569" font-size="12" font-weight="850" fill="#5f6b7a">主趋势</text>
      <text class="" x="106" y="595" font-size="12.8" font-weight="400" fill="#172033" text-anchor="start"><tspan x="106" dy="0">导航从离散路线图走向连续观察、地图记忆、物理可执行运动和开放世</tspan><tspan x="106" dy="15.616">界场景。</tspan></text>
      <text class="tiny" x="106" y="655" font-size="12" font-weight="850" fill="#5f6b7a">子方向压力</text>
    <rect x="106" y="670" width="91.88000000000001" height="24" rx="8" fill="#4E79A718" stroke="#4E79A770" stroke-width="1"/>
    <text class="" x="151.94" y="685.78" font-size="10.8" font-weight="600" fill="#172033" text-anchor="middle"><tspan x="151.94" dy="0">连续 VLN 39</tspan></text>

    <rect x="340" y="670" width="88.85600000000001" height="24" rx="8" fill="#4E79A718" stroke="#4E79A770" stroke-width="1"/>
    <text class="" x="384.428" y="685.78" font-size="10.8" font-weight="600" fill="#172033" text-anchor="middle"><tspan x="384.428" dy="0">地图记忆 23</tspan></text>

    <rect x="106" y="699" width="115.64" height="24" rx="8" fill="#4E79A718" stroke="#4E79A770" stroke-width="1"/>
    <text class="" x="163.82" y="714.78" font-size="10.8" font-weight="600" fill="#172033" text-anchor="middle"><tspan x="163.82" dy="0">物理可执行导航 7</tspan></text>

    <rect x="340" y="699" width="117.152" height="24" rx="8" fill="#4E79A718" stroke="#4E79A770" stroke-width="1"/>
    <text class="" x="398.576" y="714.78" font-size="10.8" font-weight="600" fill="#172033" text-anchor="middle"><tspan x="398.576" dy="0">城市/开放世界 20</tspan></text>
  <text class="tiny" x="106" y="756" font-size="12" font-weight="850" fill="#5f6b7a">系统接口: </text>
      <text class="" x="196" y="756" font-size="11.5" font-weight="400" fill="#5f6b7a" text-anchor="start"><tspan x="196" dy="0">导航可执行性</tspan></text><rect x="640" y="504" width="520" height="272" rx="10" fill="#ffffff" stroke="#d9e1ea" stroke-width="1.3"/>
      <rect x="640" y="504" width="8" height="272" rx="4" fill="#E15759"/>
      <text x="666" y="538" font-size="18" font-weight="850" fill="#172033">VLA 视觉语言动作</text>
      <text x="1130" y="538" font-size="14" font-weight="850" fill="#E15759" text-anchor="end">242篇</text>
      <text class="tiny" x="666" y="569" font-size="12" font-weight="850" fill="#5f6b7a">主趋势</text>
      <text class="" x="666" y="595" font-size="12.8" font-weight="400" fill="#172033" text-anchor="start"><tspan x="666" dy="0">通用策略与 diffusion/flow</tspan><tspan x="666" dy="15.616">动作生成增长最快，难点转向动作表示、3D</tspan><tspan x="666" dy="15.616">定位、在线调优和安全。</tspan></text>
      <text class="tiny" x="666" y="655" font-size="12" font-weight="850" fill="#5f6b7a">子方向压力</text>
    <rect x="666" y="670" width="91.88000000000001" height="24" rx="8" fill="#E1575918" stroke="#E1575970" stroke-width="1"/>
    <text class="" x="711.94" y="685.78" font-size="10.8" font-weight="600" fill="#172033" text-anchor="middle"><tspan x="711.94" dy="0">通用 VLA 79</tspan></text>

    <rect x="900" y="670" width="88.85600000000001" height="24" rx="8" fill="#E1575918" stroke="#E1575970" stroke-width="1"/>
    <text class="" x="944.428" y="685.78" font-size="10.8" font-weight="600" fill="#172033" text-anchor="middle"><tspan x="944.428" dy="0">动作表示 28</tspan></text>

    <rect x="666" y="699" width="160.784" height="24" rx="8" fill="#E1575918" stroke="#E1575970" stroke-width="1"/>
    <text class="" x="746.392" y="714.78" font-size="10.8" font-weight="600" fill="#172033" text-anchor="middle"><tspan x="746.392" dy="0">diffusion/flow 策略 72</tspan></text>

    <rect x="900" y="699" width="85.616" height="24" rx="8" fill="#E1575918" stroke="#E1575970" stroke-width="1"/>
    <text class="" x="942.808" y="714.78" font-size="10.8" font-weight="600" fill="#172033" text-anchor="middle"><tspan x="942.808" dy="0">3D 定位 35</tspan></text>
  <text class="tiny" x="666" y="756" font-size="12" font-weight="850" fill="#5f6b7a">系统接口: </text>
      <text class="" x="756" y="756" font-size="11.5" font-weight="400" fill="#5f6b7a" text-anchor="start"><tspan x="756" dy="0">动作表示</tspan></text><rect x="1200" y="504" width="520" height="272" rx="10" fill="#ffffff" stroke="#d9e1ea" stroke-width="1.3"/>
      <rect x="1200" y="504" width="8" height="272" rx="4" fill="#59A14F"/>
      <text x="1226" y="538" font-size="18" font-weight="850" fill="#172033">WAM 世界动作模型</text>
      <text x="1690" y="538" font-size="14" font-weight="850" fill="#59A14F" text-anchor="end">70篇</text>
      <text class="tiny" x="1226" y="569" font-size="12" font-weight="850" fill="#5f6b7a">主趋势</text>
      <text class="" x="1226" y="595" font-size="12.8" font-weight="400" fill="#172033" text-anchor="start"><tspan x="1226" dy="0">世界模型正在成为规划和控制之间的想象/验证层，级联路线与视频/latent</tspan><tspan x="1226" dy="15.616">路线更成熟。</tspan></text>
      <text class="tiny" x="1226" y="655" font-size="12" font-weight="850" fill="#5f6b7a">子方向压力</text>
    <rect x="1226" y="670" width="91.88000000000001" height="24" rx="8" fill="#59A14F18" stroke="#59A14F70" stroke-width="1"/>
    <text class="" x="1271.94" y="685.78" font-size="10.8" font-weight="600" fill="#172033" text-anchor="middle"><tspan x="1271.94" dy="0">级联 WAM 24</tspan></text>

    <rect x="1460" y="670" width="85.61600000000001" height="24" rx="8" fill="#59A14F18" stroke="#59A14F70" stroke-width="1"/>
    <text class="" x="1502.808" y="685.78" font-size="10.8" font-weight="600" fill="#172033" text-anchor="middle"><tspan x="1502.808" dy="0">联合 WAM 3</tspan></text>

    <rect x="1226" y="699" width="161" height="24" rx="8" fill="#59A14F18" stroke="#59A14F70" stroke-width="1"/>
    <text class="" x="1306.5" y="714.78" font-size="10.8" font-weight="600" fill="#172033" text-anchor="middle"><tspan x="1306.5" dy="0">视频/latent 世界模型 33</tspan></text>

    <rect x="1460" y="699" width="113.91199999999999" height="24" rx="8" fill="#59A14F18" stroke="#59A14F70" stroke-width="1"/>
    <text class="" x="1516.956" y="714.78" font-size="10.8" font-weight="600" fill="#172033" text-anchor="middle"><tspan x="1516.956" dy="0">VLA 世界模型 10</tspan></text>
  <text class="tiny" x="1226" y="756" font-size="12" font-weight="850" fill="#5f6b7a">系统接口: </text>
      <text class="" x="1316" y="756" font-size="11.5" font-weight="400" fill="#5f6b7a" text-anchor="start"><tspan x="1316" dy="0">想象与控制接口</tspan></text><rect x="80" y="806" width="520" height="272" rx="10" fill="#ffffff" stroke="#d9e1ea" stroke-width="1.3"/>
      <rect x="80" y="806" width="8" height="272" rx="4" fill="#B07AA1"/>
      <text x="106" y="840" font-size="18" font-weight="850" fill="#172033">规划与推理</text>
      <text x="570" y="840" font-size="14" font-weight="850" fill="#B07AA1" text-anchor="end">103篇</text>
      <text class="tiny" x="106" y="871" font-size="12" font-weight="850" fill="#5f6b7a">主趋势</text>
      <text class="" x="106" y="897" font-size="12.8" font-weight="400" fill="#172033" text-anchor="start"><tspan x="106" dy="0">规划从任务拆解走向记忆、失败监控、可执行约束和自改进闭环。</tspan></text>
      <text class="tiny" x="106" y="957" font-size="12" font-weight="850" fill="#5f6b7a">子方向压力</text>
    <rect x="106" y="972" width="88.85600000000001" height="24" rx="8" fill="#B07AA118" stroke="#B07AA170" stroke-width="1"/>
    <text class="" x="150.428" y="987.78" font-size="10.8" font-weight="600" fill="#172033" text-anchor="middle"><tspan x="150.428" dy="0">任务分解 40</tspan></text>

    <rect x="340" y="972" width="72" height="24" rx="8" fill="#B07AA118" stroke="#B07AA170" stroke-width="1"/>
    <text class="" x="376" y="987.78" font-size="10.8" font-weight="600" fill="#172033" text-anchor="middle"><tspan x="376" dy="0">记忆 11</tspan></text>

    <rect x="106" y="1001" width="82.59200000000001" height="24" rx="8" fill="#B07AA118" stroke="#B07AA170" stroke-width="1"/>
    <text class="" x="147.296" y="1016.78" font-size="10.8" font-weight="600" fill="#172033" text-anchor="middle"><tspan x="147.296" dy="0">失败监控 9</tspan></text>

    <rect x="340" y="1001" width="128.168" height="24" rx="8" fill="#B07AA118" stroke="#B07AA170" stroke-width="1"/>
    <text class="" x="404.084" y="1016.78" font-size="10.8" font-weight="600" fill="#172033" text-anchor="middle"><tspan x="404.084" dy="0">约束/可供性规划 11</tspan></text>
  <text class="tiny" x="106" y="1058" font-size="12" font-weight="850" fill="#5f6b7a">系统接口: </text>
      <text class="" x="196" y="1058" font-size="11.5" font-weight="400" fill="#5f6b7a" text-anchor="start"><tspan x="196" dy="0">约束与恢复</tspan></text><rect x="640" y="806" width="520" height="272" rx="10" fill="#ffffff" stroke="#d9e1ea" stroke-width="1.3"/>
      <rect x="640" y="806" width="8" height="272" rx="4" fill="#F28E2B"/>
      <text x="666" y="840" font-size="18" font-weight="850" fill="#172033">本体与控制</text>
      <text x="1130" y="840" font-size="14" font-weight="850" fill="#F28E2B" text-anchor="end">99篇</text>
      <text class="tiny" x="666" y="871" font-size="12" font-weight="850" fill="#5f6b7a">主趋势</text>
      <text class="" x="666" y="897" font-size="12.8" font-weight="400" fill="#172033" text-anchor="start"><tspan x="666" dy="0">本体方向检验策略能否适配新身体、接触、灵巧操作和协同需求。</tspan></text>
      <text class="tiny" x="666" y="957" font-size="12" font-weight="850" fill="#5f6b7a">子方向压力</text>
    <rect x="666" y="972" width="99.872" height="24" rx="8" fill="#F28E2B18" stroke="#F28E2B70" stroke-width="1"/>
    <text class="" x="715.936" y="987.78" font-size="10.8" font-weight="600" fill="#172033" text-anchor="middle"><tspan x="715.936" dy="0">人形机器人 33</tspan></text>

    <rect x="900" y="972" width="88.85600000000001" height="24" rx="8" fill="#F28E2B18" stroke="#F28E2B70" stroke-width="1"/>
    <text class="" x="944.428" y="987.78" font-size="10.8" font-weight="600" fill="#172033" text-anchor="middle"><tspan x="944.428" dy="0">双臂协同 13</tspan></text>

    <rect x="666" y="1001" width="77.84" height="24" rx="8" fill="#F28E2B18" stroke="#F28E2B70" stroke-width="1"/>
    <text class="" x="704.92" y="1016.78" font-size="10.8" font-weight="600" fill="#172033" text-anchor="middle"><tspan x="704.92" dy="0">灵巧手 35</tspan></text>

    <rect x="900" y="1001" width="117.152" height="24" rx="8" fill="#F28E2B18" stroke="#F28E2B70" stroke-width="1"/>
    <text class="" x="958.576" y="1016.78" font-size="10.8" font-weight="600" fill="#172033" text-anchor="middle"><tspan x="958.576" dy="0">触觉/接触密集 18</tspan></text>
  <text class="tiny" x="666" y="1058" font-size="12" font-weight="850" fill="#5f6b7a">系统接口: </text>
      <text class="" x="756" y="1058" font-size="11.5" font-weight="400" fill="#5f6b7a" text-anchor="start"><tspan x="756" dy="0">身体迁移</tspan></text><rect x="1200" y="806" width="520" height="272" rx="10" fill="#ffffff" stroke="#d9e1ea" stroke-width="1.3"/>
      <rect x="1200" y="806" width="8" height="272" rx="4" fill="#76B7B2"/>
      <text x="1226" y="840" font-size="18" font-weight="850" fill="#172033">部署与评测</text>
      <text x="1690" y="840" font-size="14" font-weight="850" fill="#76B7B2" text-anchor="end">101篇</text>
      <text class="tiny" x="1226" y="871" font-size="12" font-weight="850" fill="#5f6b7a">主趋势</text>
      <text class="" x="1226" y="897" font-size="12.8" font-weight="400" fill="#172033" text-anchor="start"><tspan x="1226" dy="0">部署由可信基准与数据、效率、sim2real、实时执行和安全评</tspan><tspan x="1226" dy="15.616">测共同决定。</tspan></text>
      <text class="tiny" x="1226" y="957" font-size="12" font-weight="850" fill="#5f6b7a">子方向压力</text>
    <rect x="1226" y="972" width="132.704" height="24" rx="8" fill="#76B7B218" stroke="#76B7B270" stroke-width="1"/>
    <text class="" x="1292.352" y="987.78" font-size="10.8" font-weight="600" fill="#172033" text-anchor="middle"><tspan x="1292.352" dy="0">量化/缓存/token 22</tspan></text>

    <rect x="1460" y="972" width="82.59200000000001" height="24" rx="8" fill="#76B7B218" stroke="#76B7B270" stroke-width="1"/>
    <text class="" x="1501.296" y="987.78" font-size="10.8" font-weight="600" fill="#172033" text-anchor="middle"><tspan x="1501.296" dy="0">实时执行 6</tspan></text>

    <rect x="1226" y="1001" width="106.13600000000001" height="24" rx="8" fill="#76B7B218" stroke="#76B7B270" stroke-width="1"/>
    <text class="" x="1279.068" y="1016.78" font-size="10.8" font-weight="600" fill="#172033" text-anchor="middle"><tspan x="1279.068" dy="0">基准/数据集 42</tspan></text>

    <rect x="1460" y="1001" width="94.904" height="24" rx="8" fill="#76B7B218" stroke="#76B7B270" stroke-width="1"/>
    <text class="" x="1507.452" y="1016.78" font-size="10.8" font-weight="600" fill="#172033" text-anchor="middle"><tspan x="1507.452" dy="0">sim2real 18</tspan></text>

    <rect x="1226" y="1030" width="88.85600000000001" height="24" rx="8" fill="#76B7B218" stroke="#76B7B270" stroke-width="1"/>
    <text class="" x="1270.428" y="1045.78" font-size="10.8" font-weight="600" fill="#172033" text-anchor="middle"><tspan x="1270.428" dy="0">安全评测 13</tspan></text>
  <text class="tiny" x="1226" y="1058" font-size="12" font-weight="850" fill="#5f6b7a">系统接口: </text>
      <text class="" x="1316" y="1058" font-size="11.5" font-weight="400" fill="#5f6b7a" text-anchor="start"><tspan x="1316" dy="0">可信评测与延迟</tspan></text></svg>
